<?xml version="1.0" standalone="no"?>
<!DOCTYPE svg PUBLIC "-//W3C//DTD SVG 1.1//EN" "http://www.w3.org/Graphics/SVG/1.1/DTD/svg11.dtd" >
<svg xmlns="http://www.w3.org/2000/svg">
<metadata>
This is a custom SVG webfont generated by Font Squirrel.
Copyright   : Copyright  1991 2002 Adobe Systems Incorporated  All Rights Reserved  1981 2002 Heidelberger Druckmaschinen AG All rights reserved
Designer    : Adrian Frutiger
Foundry URL : httpwwwadobecomtype
</metadata>
<defs>
<font id="EgyptienneFLTStd55Roman" horiz-adv-x="1138" >
<font-face units-per-em="2048" ascent="1487" descent="-561" />
<missing-glyph horiz-adv-x="569" />
<glyph unicode=" "  horiz-adv-x="569" />
<glyph unicode="&#x09;" horiz-adv-x="569" />
<glyph unicode="&#xa0;" horiz-adv-x="569" />
<glyph unicode="!" horiz-adv-x="684" d="M225 102q0 127 117 127t117 -127t-117 -127t-117 127zM244 1276q0 49 19.5 70.5t78.5 21.5t78.5 -21.5t19.5 -70.5q0 -10 -4 -100l-35 -832h-118l-35 832q-4 90 -4 100z" />
<glyph unicode="&#x22;" horiz-adv-x="796" d="M162 1374q0 96 82 96t82 -96q0 -59 -9 -141l-26 -227q-4 -47 -47 -47.5t-47 47.5l-27 227q-8 82 -8 141zM471 1374q0 96 82 96t82 -96q0 -59 -8 -141l-27 -227q-4 -47 -47 -47.5t-47 47.5l-27 227q-8 82 -8 141z" />
<glyph unicode="#" d="M33 410v127h241l64 262h-215v127h244l96 409h127l-96 -409h272l96 409h127l-96 -409h213v-127h-242l-63 -262h215v-127h-244l-96 -410h-127l96 410h-272l-97 -410h-126l96 410h-213zM401 537h273l63 262h-272z" />
<glyph unicode="$" d="M119 49v328h127q8 -166 70.5 -237.5t193.5 -73.5v544q-76 27 -116 43.5t-101.5 51t-93 69.5t-56 93.5t-24.5 129.5q0 143 100 242.5t291 122.5v108h119v-102q162 -2 327 -76v-311h-127q0 262 -200 289v-518q76 -27 114.5 -42.5t101 -50t94.5 -70.5t56.5 -96.5 t24.5 -134.5q0 -160 -106.5 -260t-284.5 -125v-147h-119v141q-215 2 -391 82zM299 1040q0 -92 55.5 -149t155.5 -96v469q-102 -18 -156.5 -79t-54.5 -145zM629 80q94 25 148 89t54 157q0 90 -53 144t-149 95v-485z" />
<glyph unicode="%" horiz-adv-x="1478" d="M102 991q0 377 274.5 377t274.5 -377t-274.5 -377t-274.5 377zM238 991.5q0 -157.5 33.5 -224.5t105.5 -67t105.5 67t33.5 224.5t-33.5 224t-105.5 66.5t-105.5 -66.5t-33.5 -224zM260 -59l842 1454h119l-842 -1454h-119zM827 344q0 377 274.5 377t274.5 -377 t-274.5 -377t-274.5 377zM963 344q0 -158 33.5 -224.5t105.5 -66.5t105.5 66.5t33.5 224.5t-33.5 224.5t-105.5 66.5t-105.5 -66.5t-33.5 -224.5z" />
<glyph unicode="&#x26;" horiz-adv-x="1593" d="M125 360q0 125 79 217.5t249 124.5v5q-289 47 -289 311q0 350 491 350q160 0 320 -33v-338h-135q0 158 -45 215.5t-174 57.5q-133 0 -205 -74t-72 -174q0 -135 79 -199.5t251 -64.5h835v-291h-127q0 117 -20.5 150.5t-91.5 33.5h-96v-231q0 -225 -127 -339t-410 -114 q-512 0 -512 393zM313 356q0 -131 83 -206.5t259 -75.5t261 99t85 319v159h-366q-145 0 -233.5 -79t-88.5 -216z" />
<glyph unicode="'" horiz-adv-x="569" d="M203 1374q0 96 82 96t82 -96q0 -59 -9 -141l-26 -227q-4 -47 -47 -47.5t-47 47.5l-27 227q-8 82 -8 141z" />
<glyph unicode="(" horiz-adv-x="569" d="M158 635q0 504 245 835h99q-180 -301 -180 -835.5t180 -835.5h-99q-245 332 -245 836z" />
<glyph unicode=")" horiz-adv-x="569" d="M68 -201q180 301 180 835.5t-180 835.5h98q246 -332 246 -835.5t-246 -835.5h-98z" />
<glyph unicode="*" horiz-adv-x="909" d="M90 897v172l287 -43l-187 221l156 88l109 -284l108 284l156 -88l-187 -221l287 43v-172l-287 43l183 -221l-152 -88l-108 284l-109 -284l-151 88l182 221z" />
<glyph unicode="+" horiz-adv-x="1228" d="M96 451v135h451v450h135v-450h451v-135h-451v-451h-135v451h-451z" />
<glyph unicode="," horiz-adv-x="569" d="M152 -270l75 407q10 59 33 82t76 23q66 0 90.5 -13.5t24.5 -44.5q0 -16 -35 -88l-172 -366h-92z" />
<glyph unicode="-" horiz-adv-x="796" d="M137 438v107h522v-107h-522z" />
<glyph unicode="." horiz-adv-x="569" d="M168 102q0 127 116.5 127t116.5 -127t-116.5 -127t-116.5 127z" />
<glyph unicode="/" horiz-adv-x="796" d="M35 -33l592 1401h135l-592 -1401h-135z" />
<glyph unicode="0" d="M86 667.5q0 700.5 483.5 700.5t483.5 -700.5t-483.5 -700.5t-483.5 700.5zM283 668q0 -336 69.5 -465t217 -129t217 129t69.5 465t-69.5 465t-217 129t-217 -129t-69.5 -465z" />
<glyph unicode="1" d="M256 0v92h86q76 0 104.5 32t28.5 122v801q0 68 -27.5 98.5t-93.5 30.5h-98v98q231 10 408 74v-1131q0 -74 26.5 -99.5t100.5 -25.5h79v-92h-614z" />
<glyph unicode="2" d="M117 0v156q313 297 459.5 460.5t182.5 241.5t36 176q0 111 -62.5 169.5t-169.5 58.5q-236 0 -241 -318h-181q2 94 19.5 164t61.5 132.5t132 95t217 32.5q207 0 309.5 -90t102.5 -248q0 -100 -41 -184t-182.5 -240.5t-444.5 -441.5h469q59 0 80 25.5t25 97.5h106v-287 h-878z" />
<glyph unicode="3" d="M102 352h181q10 -279 243 -278q137 0 209 74.5t72 199.5q0 152 -88 210t-264 58h-58v119h49q178 0 250 66.5t72 218.5q0 117 -61.5 179.5t-165.5 62.5q-113 0 -165 -75t-54 -186h-181q4 164 108.5 265.5t291.5 101.5q188 0 301.5 -92t113.5 -281q0 -117 -69.5 -197.5 t-190.5 -117.5v-4q299 -43 299 -330q0 -180 -119.5 -279.5t-336.5 -99.5q-233 0 -333 93t-104 292z" />
<glyph unicode="4" d="M27 379v127l606 829h196v-837h283v-119h-283v-197q0 -51 30 -70.5t97 -19.5h82v-92h-589v92h81q68 0 97.5 19.5t29.5 70.5v197h-630zM182 498h475v649h-4z" />
<glyph unicode="5" d="M119 354h172q2 -123 61.5 -201.5t190.5 -78.5t205.5 84t74.5 258q0 352 -270 352q-180 0 -258 -174h-135l24 741h762v-164h-624l-13 -383q135 98 293 99q186 0 302 -115t116 -323q0 -236 -125 -359t-363 -123q-409 0 -413 387z" />
<glyph unicode="6" d="M113 588q0 385 113.5 582.5t385.5 197.5q184 0 273.5 -75.5t105.5 -237.5h-180q-14 96 -56 151.5t-147 55.5q-166 0 -230.5 -138.5t-68.5 -414.5q139 133 324 133q172 0 282.5 -106.5t110.5 -317.5q0 -207 -120 -329t-337 -122q-106 0 -206.5 44t-151.5 116 q-55 78 -76.5 178.5t-21.5 282.5zM317 403.5q0 -163.5 73 -246.5t187.5 -83t187.5 83t73 246.5t-73 247.5t-187.5 84t-187.5 -84t-73 -247.5z" />
<glyph unicode="7" d="M125 1038v297h889v-147l-498 -1188h-188l538 1171h-538q-57 0 -76 -30.5t-21 -102.5h-106z" />
<glyph unicode="8" d="M102 336q0 268 273 350v4q-233 84 -234 322q0 182 124 269t304.5 87t304 -87t123.5 -269q0 -238 -233 -322v-4q272 -82 272 -350q0 -176 -128 -272.5t-339 -96.5t-339 96.5t-128 272.5zM291 354q0 -143 76.5 -215.5t201.5 -72.5t202 72.5t77 215.5q0 139 -77 212t-202 73 q-123 0 -200.5 -73t-77.5 -212zM322 1003.5q0 -126.5 65.5 -196.5t182 -70t182 70t65.5 196.5t-65.5 196.5t-182 70t-182 -70t-65.5 -196.5z" />
<glyph unicode="9" d="M113 918q0 207 119.5 328.5t336.5 121.5q106 0 207 -44t152 -116q55 -78 76.5 -178t21.5 -282q0 -385 -113.5 -583t-386.5 -198q-184 0 -273 76t-106 238h181q14 -96 56 -151.5t146 -55.5q166 0 230.5 138t68.5 415q-139 -133 -323 -133q-172 0 -282.5 106.5 t-110.5 317.5zM301 932q0 -164 72.5 -248t187.5 -84t187.5 84t72.5 248t-72.5 247t-187.5 83t-187.5 -83t-72.5 -247z" />
<glyph unicode=":" horiz-adv-x="569" d="M168 102q0 127 116.5 127t116.5 -127t-116.5 -127t-116.5 127zM168 844q0 127 116.5 127t116.5 -127t-116.5 -127t-116.5 127z" />
<glyph unicode=";" horiz-adv-x="569" d="M82 -270l76 407q10 59 32.5 82t75.5 23q66 0 90.5 -13.5t24.5 -44.5q0 -16 -35 -88l-172 -366h-92zM168 844q0 127 116.5 127t116.5 -127t-116.5 -127t-116.5 127z" />
<glyph unicode="&#x3c;" horiz-adv-x="1228" d="M96 455v127l1037 471v-135l-865 -400l865 -399v-135z" />
<glyph unicode="=" horiz-adv-x="1228" d="M96 246v135h1037v-135h-1037zM96 655v136h1037v-136h-1037z" />
<glyph unicode="&#x3e;" horiz-adv-x="1228" d="M96 -16v135l865 399l-865 400v135l1037 -471v-127z" />
<glyph unicode="?" horiz-adv-x="909" d="M80 1030q0 176 87 257t261 81q178 0 275.5 -87t97.5 -222q0 -172 -125 -291l-135 -131q-63 -63 -64 -217v-76h-119q-8 139 -8 164q0 68 26.5 122t65.5 93t78 79t65.5 99.5t26.5 132.5q0 115 -48 175.5t-132 60.5q-94 0 -141 -63.5t-47 -176.5h-164zM301 102 q0 127 117 127t117 -127t-117 -127t-117 127z" />
<glyph unicode="@" horiz-adv-x="1638" d="M119 639q0 317 218 523t523 206q272 0 466 -166t194 -436q0 -182 -107.5 -330.5t-269.5 -148.5q-80 0 -127 46t-55 95h-5q-35 -55 -100 -98t-137 -43q-80 0 -140.5 52t-60.5 185q0 215 123 360.5t283 145.5q113 0 147 -106h4l21 80h135l-123 -482q-12 -51 -12 -90 q0 -72 80 -72q102 0 176.5 126t74.5 282q0 201 -160.5 357.5t-406.5 156.5q-242 0 -401.5 -174t-159.5 -490q0 -229 163 -397t419 -168q209 0 405 97l25 -66q-96 -53 -216 -85t-212 -32q-152 0 -282 44t-217 114t-148.5 160t-89 180t-27.5 174zM674 547q0 -168 125 -168 q82 0 159.5 119.5t77.5 310.5q0 129 -98 129q-82 0 -173 -112.5t-91 -278.5z" />
<glyph unicode="A" horiz-adv-x="1366" d="M25 0v92q68 0 93 14.5t44 67.5l416 1161h217l387 -1087q35 -94 62.5 -125t70.5 -31h26v-92h-512v92h99q94 0 94 49q0 25 -21 80l-63 185h-543l-59 -173q-25 -70 -25 -92q0 -27 17.5 -38t70.5 -11h88v-92h-462zM432 512h469l-233 680h-4z" />
<glyph unicode="B" horiz-adv-x="1366" d="M74 0v92h119q74 0 103.5 26.5t29.5 121.5v856q0 94 -30 120.5t-103 26.5h-119v92h647q225 0 351 -85t126 -240q0 -129 -87 -216t-224 -106v-4q344 -53 344 -330q0 -160 -125 -257t-379 -97h-653zM506 106h258q111 0 194.5 68t83.5 184q0 268 -360 269h-176v-521zM506 725 h170q154 0 244 65.5t90 200.5q0 125 -86 181.5t-301 56.5h-117v-504z" />
<glyph unicode="C" horiz-adv-x="1366" d="M135 606q0 369 165 565.5t472 196.5q199 0 387 -61v-377h-135q-8 199 -50 265.5t-202 66.5q-440 0 -440 -631q0 -557 436 -557q158 0 206 69.5t56 264.5h144l-17 -381q-213 -59 -407 -60q-129 0 -234.5 33t-194 103.5t-137.5 198.5t-49 304z" />
<glyph unicode="D" horiz-adv-x="1478" d="M74 0v92h102q74 0 103.5 26.5t29.5 121.5v856q0 94 -29.5 120.5t-103.5 26.5h-102v92h569q127 0 227.5 -15t196.5 -59t159.5 -118t102.5 -198t39 -290t-45 -287.5t-115.5 -190t-175 -110.5t-201 -54.5t-217.5 -12.5h-540zM489 106h160q256 0 389 126t133 440 q0 348 -184 479q-68 47 -169 62.5t-329 15.5v-1123z" />
<glyph unicode="E" horiz-adv-x="1366" d="M74 0v92h102q74 0 103.5 26.5t29.5 121.5v856q0 94 -29.5 120.5t-103.5 26.5h-102v92h1114v-331h-135v81q0 96 -39 120t-160 24h-365v-496h201q82 0 108.5 32t26.5 153h113v-490h-113q0 133 -25.5 166t-135.5 33h-175v-521h441q94 0 119.5 42t25.5 196h135v-344h-1136z " />
<glyph unicode="F" horiz-adv-x="1251" d="M57 0v92h119q74 0 103.5 26.5t29.5 121.5v856q0 94 -29.5 120.5t-103.5 26.5h-119v92h1092v-331h-135v81q0 96 -39 120t-160 24h-326v-496h201q82 0 108.5 32t26.5 153h113v-490h-113q0 133 -25.5 166t-135.5 33h-175v-387q0 -94 30 -121t104 -27h118v-92h-684z" />
<glyph unicode="G" horiz-adv-x="1478" d="M135 608q0 391 184.5 575.5t518.5 184.5q162 0 385 -49v-361h-144l-12 166q-12 137 -244 138q-492 0 -491 -625q0 -113 22.5 -209t70.5 -178t138 -129t213 -47q111 0 275 49v229q0 76 -29 101.5t-102 25.5h-129v92h643v-92h-107q-55 0 -79.5 -27.5t-24.5 -103.5v-303 q-233 -78 -473 -78q-129 0 -234.5 33t-194 104.5t-137.5 199.5t-49 304z" />
<glyph unicode="H" horiz-adv-x="1593" d="M57 0v92h119q74 0 103.5 26.5t29.5 121.5v856q0 94 -29.5 120.5t-103.5 26.5h-119v92h668v-92h-102q-74 0 -104 -26.5t-30 -120.5v-351h615v351q0 94 -30 120.5t-103 26.5h-103v92h668v-92h-119q-74 0 -103.5 -26.5t-29.5 -120.5v-856q0 -94 29.5 -121t103.5 -27h119v-92 h-668v92h103q74 0 103.5 26.5t29.5 121.5v387h-615v-387q0 -94 30 -121t104 -27h102v-92h-668z" />
<glyph unicode="I" horiz-adv-x="798" d="M57 0v92h119q74 0 103.5 26.5t29.5 121.5v856q0 94 -29.5 120.5t-103.5 26.5h-119v92h684v-92h-118q-74 0 -104 -26.5t-30 -120.5v-856q0 -94 30 -121t104 -27h118v-92h-684z" />
<glyph unicode="J" d="M74 0v393h155q2 -201 45 -267.5t140 -66.5q152 0 215 116t63 386v535q0 94 -29.5 120.5t-103.5 26.5h-135v92h668v-92h-86q-74 0 -104 -26.5t-30 -120.5v-686q0 -238 -121.5 -340.5t-359.5 -102.5q-147 0 -317 33z" />
<glyph unicode="K" horiz-adv-x="1366" d="M57 0v92h119q74 0 103.5 26.5t29.5 121.5v856q0 94 -29.5 120.5t-103.5 26.5h-119v92h631v-92h-65q-74 0 -104 -26.5t-30 -120.5v-856q0 -94 30 -121t104 -27h65v-92h-631zM494 700l387 449q31 37 30 59q0 20 -18.5 27.5t-77.5 7.5v92h500v-92h-82q-100 0 -191 -100 l-360 -404l465 -555q45 -51 88 -71.5t111 -20.5v-92h-525v92h60q39 0 53 6t14 25q0 25 -39 74z" />
<glyph unicode="L" horiz-adv-x="1251" d="M74 0v92h102q74 0 103.5 26.5t29.5 121.5v856q0 94 -29.5 120.5t-103.5 26.5h-102v92h690v-92h-141q-74 0 -104 -26.5t-30 -120.5v-990h406q90 0 114.5 44.5t24.5 222.5v65h135v-438h-1095z" />
<glyph unicode="M" horiz-adv-x="1933" d="M53 0v92h90q96 0 127 24.5t31 119.5q0 141 6 425.5t6 428.5q0 86 -27.5 119.5t-111.5 33.5h-104v92h536l355 -1138h4l366 1138h549v-92h-125q-70 0 -95.5 -24.5t-25.5 -98.5q0 -141 4 -432t4 -438q0 -100 26 -129t97 -29h115v-92h-612v92h88q61 0 87.5 34t26.5 122 q0 109 -7 467t-9 540h-4l-418 -1255h-172l-405 1237h-4q-14 -702 -15 -1012q0 -82 26.5 -107.5t90.5 -25.5h80v-92h-580z" />
<glyph unicode="N" horiz-adv-x="1593" d="M68 0v92h118q74 0 103.5 26.5t29.5 121.5v856q0 94 -29.5 120.5t-103.5 26.5h-118v92h514q33 -63 138 -260.5t165.5 -314.5t144.5 -287t141 -301h5v934q0 80 -28 108.5t-110 28.5h-98v92h586v-92h-109q-57 0 -81.5 -31.5t-24.5 -105.5v-1106h-217l-635 1200h-4v-960 q0 -94 29.5 -121t103.5 -27h102v-92h-622z" />
<glyph unicode="O" horiz-adv-x="1478" d="M135 668q0 348 159 524t445.5 176t445 -176t158.5 -524q0 -338 -160.5 -519.5t-443 -181.5t-443.5 181.5t-161 519.5zM332 668q0 -594 407.5 -594t407.5 594t-407.5 594t-407.5 -594z" />
<glyph unicode="P" horiz-adv-x="1251" d="M74 0v92h119q74 0 103.5 26.5t29.5 121.5v850q0 94 -30 120.5t-103 26.5h-119v98h688q180 0 291.5 -90t111.5 -278q0 -393 -530 -394h-129v-333q0 -94 29.5 -121t103.5 -27h139v-92h-704zM506 680h106q197 0 281 73.5t84 211.5q0 143 -78 203.5t-242 60.5h-151v-549z" />
<glyph unicode="Q" horiz-adv-x="1478" d="M135 668q0 348 159 524t445.5 176t445 -176t158.5 -524q0 -360 -184 -541h295v-127h-375q-88 0 -188 -16q-94 -16 -152 -17q-283 0 -443.5 181.5t-160.5 519.5zM332 668q0 -594 407.5 -594t407.5 594t-407.5 594t-407.5 -594z" />
<glyph unicode="R" horiz-adv-x="1478" d="M74 0v92h119q74 0 103.5 26.5t29.5 121.5v856q0 94 -30 120.5t-103 26.5h-119v92h647q223 0 350 -88t127 -239q0 -127 -87 -214t-224 -106v-8q117 -14 167 -63.5t99 -176.5l98 -254q37 -94 113 -94h66v-92h-308q-45 127 -67.5 189.5t-54 143.5t-48 113.5t-45 75.5 t-48 55.5t-53.5 29t-66.5 18.5t-80.5 2h-153v-387q0 -94 29.5 -121t103.5 -27h119v-92h-684zM506 725h170q154 0 244 65.5t90 200.5q0 133 -87 185.5t-300 52.5h-117v-504z" />
<glyph unicode="S" d="M119 49v336h127q8 -168 71.5 -239.5t198.5 -71.5q141 0 228 70.5t87 185.5q0 98 -73.5 160.5t-178 97.5t-209 74.5t-178 122.5t-73.5 212q0 162 127 266.5t358 104.5q182 0 352 -76v-321h-127q0 291 -243 291q-137 0 -212 -63.5t-75 -162.5q0 -102 75 -164.5t180 -96.5 t210.5 -73.5t180.5 -124.5t75 -219q0 -182 -137.5 -286.5t-356.5 -104.5q-225 0 -407 82z" />
<glyph unicode="T" horiz-adv-x="1368" d="M82 924v411h1204v-411h-135l-16 196q-6 74 -38 95.5t-128 21.5h-195v-997q0 -94 30 -121t103 -27h103v-92h-652v92h103q74 0 103.5 26.5t29.5 121.5v997h-195q-96 0 -127.5 -21.5t-38.5 -95.5l-16 -196h-135z" />
<glyph unicode="U" horiz-adv-x="1478" d="M37 1243v92h631v-92h-103q-86 0 -109.5 -29.5t-23.5 -109.5v-674q0 -188 88 -272t228 -84q154 0 242.5 89t88.5 275v719q0 49 -29.5 67.5t-88.5 18.5h-109v92h590v-92h-107q-72 0 -96.5 -27.5t-24.5 -103.5v-674q0 -233 -133 -352t-360 -119q-205 0 -337 111.5 t-132 333.5v694q0 86 -23.5 111.5t-105.5 25.5h-86z" />
<glyph unicode="V" horiz-adv-x="1366" d="M25 1243v92h542v-92h-108q-49 0 -70.5 -8t-21.5 -35q0 -25 16 -80l315 -977h4l314 955q23 68 22 104q0 23 -17 32t-67 9h-100v92h487v-92q-82 0 -110.5 -26.5t-59.5 -114.5l-397 -1114h-196l-367 1097q-35 104 -65.5 131t-120.5 27z" />
<glyph unicode="W" horiz-adv-x="2048" d="M25 1243v92h516v-92h-76q-78 0 -100.5 -10t-22.5 -41q0 -25 25 -123l229 -901h4l346 1167h189l329 -1183h4l256 964q16 66 17 84q0 25 -23.5 34t-81.5 9h-80v92h467v-92q-51 0 -72.5 -4t-41 -28.5t-35.5 -82.5l-324 -1140h-200l-328 1142h-4l-336 -1142h-197l-317 1155 q-18 61 -43.5 80.5t-99.5 19.5z" />
<glyph unicode="X" horiz-adv-x="1478" d="M57 0v92q98 0 134 17.5t88 85.5l362 487l-309 432q-61 86 -101.5 107.5t-119.5 21.5h-17v92h574v-92h-76q-90 0 -90 -45q0 -25 59 -106l215 -297l236 321q45 59 45 90q0 37 -80 37h-80v92h508v-92q-96 0 -134 -16.5t-97 -96.5l-324 -436l344 -479q57 -80 92 -101.5 t90 -21.5h45v-92h-569v92h74q98 0 98 43q0 25 -39 76l-270 373l-258 -361q-47 -66 -47 -92q0 -39 57 -39h111v-92h-521z" />
<glyph unicode="Y" horiz-adv-x="1366" d="M25 1243v92h544v-92h-82q-98 0 -98 -37q0 -31 27 -78l293 -542l297 530q29 53 28 80q0 47 -73 47h-111v92h491v-92h-59q-31 0 -51.5 -15.5t-48.5 -64.5l-410 -706v-217q0 -94 29.5 -121t103.5 -27h103v-92h-668v92h119q74 0 103.5 26.5t29.5 121.5v217l-395 712 q-25 43 -47.5 58.5t-59.5 15.5h-65z" />
<glyph unicode="Z" d="M86 0v137l758 1086h-404q-100 0 -135 -24.5t-35 -106.5v-97h-143v340h913v-137l-766 -1085h451q121 0 152.5 33.5t31.5 170.5v41h144v-358h-967z" />
<glyph unicode="[" horiz-adv-x="569" d="M168 -201v1671h340v-106h-176v-1458h176v-107h-340z" />
<glyph unicode="\" horiz-adv-x="796" d="M35 1368h135l592 -1401h-135z" />
<glyph unicode="]" horiz-adv-x="569" d="M61 -94h177v1458h-177v106h340v-1671h-340v107z" />
<glyph unicode="^" horiz-adv-x="1228" d="M182 588l369 747h127l369 -747h-136l-297 592l-297 -592h-135z" />
<glyph unicode="_" horiz-adv-x="1024" d="M0 -154h1024v-102h-1024v102z" />
<glyph unicode="`" horiz-adv-x="569" d="M14 1470h217l189 -286h-135z" />
<glyph unicode="a" d="M125 248q0 150 102.5 240t309.5 90h213v108q0 106 -51.5 161.5t-145.5 55.5q-127 0 -171 -53t-48 -166h-180q2 59 16 106.5t53 97.5t125 78.5t215 28.5q170 0 264.5 -66.5t94.5 -197.5q0 -72 -2 -227.5t-2 -239.5q0 -125 24.5 -151.5t132.5 -26.5v-86h-313v168h-4 q-49 -88 -124 -140.5t-210 -52.5q-133 0 -216 74t-83 199zM305 268q0 -82 50.5 -128t129.5 -46q78 0 141.5 45t86.5 103q37 90 37 243h-132q-313 0 -313 -217z" />
<glyph unicode="b" horiz-adv-x="1251" d="M47 0v86h72q68 0 94.5 29.5t26.5 138.5v1024q0 100 -93 100h-100v92q190 0 365 17v-674h4q86 182 313 182q178 0 284.5 -125t106.5 -352q0 -158 -38 -270.5t-102.5 -168.5t-132 -80t-145.5 -24q-201 0 -307 166h-4v-141h-344zM412 485.5q0 -403.5 264 -403.5t264 403.5 t-264 403.5t-264 -403.5z" />
<glyph unicode="c" horiz-adv-x="1024" d="M109 477q0 260 135 389t340 129q190 0 331 -63v-287h-143q0 135 -42 193.5t-146 58.5q-127 0 -207 -108.5t-80 -315.5q0 -209 80 -304t188 -95q215 0 238 248h135q0 -182 -110.5 -264.5t-270.5 -82.5q-213 0 -330.5 124t-117.5 378z" />
<glyph unicode="d" horiz-adv-x="1251" d="M131 455q0 260 117 400t305 140q199 0 293 -155h4v438q0 100 -92 100h-101v92q190 0 365 17v-1233q0 -109 26.5 -138.5t94.5 -29.5h71v-86h-348v168h-4q-47 -96 -140 -144.5t-202 -48.5q-78 0 -142.5 22.5t-122.5 75t-91 150t-33 232.5zM319 487q0 -213 67 -309t204 -96 q125 0 196.5 108.5t71.5 290.5q0 213 -66.5 310.5t-201.5 97.5q-127 0 -199 -110t-72 -292z" />
<glyph unicode="e" horiz-adv-x="1024" d="M109 485q0 248 116.5 379t325.5 131q172 0 281.5 -99t109.5 -300v-117h-653q2 -406 258 -405q92 0 154.5 51t80.5 151h144q-45 -301 -381 -301q-436 0 -436 510zM289 578h481q-2 154 -59.5 236.5t-165.5 82.5q-119 0 -184.5 -84.5t-71.5 -234.5z" />
<glyph unicode="f" horiz-adv-x="796" d="M47 0v86h78q115 0 115 92v701h-193v92h193v100q0 215 101 307t296 92q98 0 229 -30v-271h-118q-4 111 -32 163t-100 52q-205 0 -204 -299v-114h258v-92h-258v-639q0 -94 26.5 -124t102.5 -30h100v-86h-594z" />
<glyph unicode="g" d="M78 -180q0 182 262 243v5q-78 4 -120 38.5t-42 81.5q0 51 41 88t117 46v4q-168 102 -168 313q0 160 115.5 258t279.5 98q96 0 211 -41l313 17v-107h-223q80 -111 80 -241q0 -152 -117.5 -250.5t-345.5 -98.5q-82 0 -114.5 -19t-32.5 -60q0 -43 48 -59.5t232 -24.5 q92 -4 161 -17.5t133.5 -42t99 -83t34.5 -134.5q0 -127 -127 -213t-399 -86q-213 0 -325.5 82t-112.5 203zM250 -176q0 -197 305 -197q307 0 307 197q0 201 -307 201q-305 0 -305 -201zM340 635q0 -141 60.5 -208t156.5 -67q94 0 154.5 67t60.5 208t-60.5 207.5t-154.5 66.5 q-96 0 -156.5 -66.5t-60.5 -207.5z" />
<glyph unicode="h" horiz-adv-x="1251" d="M47 0v86h57q135 0 136 119v1073q0 100 -93 100h-100v92q190 0 365 17v-651h6q94 160 313 159q309 0 309 -305v-487q0 -68 22.5 -92.5t72.5 -24.5h69v-86h-528v86h90q51 0 76.5 26.5t25.5 96.5v403q0 145 -47 211t-147 66q-131 0 -196.5 -93.5t-65.5 -238.5v-352 q0 -119 135 -119h41v-86h-541z" />
<glyph unicode="i" horiz-adv-x="684" d="M72 0v86h57q135 0 135 119v573q0 100 -92 101h-100v92q190 0 364 16v-782q0 -119 135 -119h41v-86h-540zM225 1335.5q0 63.5 32 99t89 35.5t89 -35.5t32 -99t-32 -99.5t-89 -36t-89 36t-32 99.5z" />
<glyph unicode="j" horiz-adv-x="569" d="M-174 -168h127q0 -186 119 -186q100 0 146 63.5t46 241.5v827q0 100 -92 101h-100v92q190 0 364 16v-622q0 -41 4 -174.5t4 -227.5q0 -211 -88 -307t-286 -96q-117 0 -236 26q0 37 -4 127t-4 119zM225 1335.5q0 63.5 32 99t89 35.5t89 -35.5t32 -99t-32 -99.5t-89 -36 t-89 36t-32 99.5z" />
<glyph unicode="k" d="M47 0v86h57q135 0 136 119v1073q0 100 -93 100h-100v92q190 0 365 17v-1282q0 -119 135 -119h41v-86h-541zM424 512l262 266q37 37 37 68q0 39 -68 39h-57v86h471v-86q-131 -4 -217 -92l-246 -248l338 -359q55 -59 86 -78.5t84 -21.5v-86h-450v86h43q61 0 61 35 q0 16 -49 72z" />
<glyph unicode="l" horiz-adv-x="684" d="M72 0v86h57q135 0 135 119v1073q0 100 -92 100h-100v92q190 0 364 17v-1282q0 -119 135 -119h41v-86h-540z" />
<glyph unicode="m" horiz-adv-x="1818" d="M47 0v86h57q135 0 136 119v573q0 100 -93 101h-100v92q197 0 356 16v-151h7q94 160 313 159q205 0 264 -161q111 162 311 161q309 0 310 -305v-487q0 -68 22.5 -92.5t71.5 -24.5h70v-86h-521v86h82q51 0 77 26.5t26 96.5v403q0 145 -47.5 211t-147.5 66 q-111 0 -171 -95.5t-60 -236.5v-352q0 -119 135 -119h41v-86h-533v86h49q135 0 136 119v407q0 145 -48.5 211t-150.5 66q-109 0 -168 -95.5t-59 -236.5v-352q0 -119 135 -119h41v-86h-541z" />
<glyph unicode="n" horiz-adv-x="1251" d="M47 0v86h57q135 0 136 119v573q0 100 -93 101h-100v92q197 0 356 16v-151h7q94 160 313 159q317 0 317 -305v-487q0 -68 22.5 -92.5t72.5 -24.5h69v-86h-528v86h90q51 0 76.5 26.5t25.5 96.5v403q0 145 -47 211t-147 66q-131 0 -196.5 -93.5t-65.5 -238.5v-352 q0 -119 135 -119h41v-86h-541z" />
<glyph unicode="o" d="M109 485q0 256 130 383t330.5 127t330.5 -127t130 -383t-130 -383t-330.5 -127t-330.5 127t-130 383zM297 485q0 -215 65.5 -313t207 -98t207 98t65.5 313t-65.5 313.5t-207 98.5t-207 -98.5t-65.5 -313.5z" />
<glyph unicode="p" horiz-adv-x="1251" d="M47 -354h57q135 0 136 118v1014q0 100 -93 101h-100v92q197 0 356 16v-174h5q106 182 329 182q172 0 277.5 -125t105.5 -352q0 -158 -38 -270.5t-101 -168.5t-130 -80t-144 -24q-174 0 -291 138h-4v-349q0 -119 135 -118h49v-86h-549v86zM412 485.5q0 -403.5 264 -403.5 t264 403.5t-264 403.5t-264 -403.5z" />
<glyph unicode="q" horiz-adv-x="1251" d="M131 455q0 260 117 400t305 140q193 0 307 -168h4v160q47 -4 172 -12q127 -4 168 -4h2v-92h-100q-92 0 -92 -101v-1014q0 -119 135 -118h57v-86h-549v86h50q135 0 135 118v349h-6q-117 -137 -316 -138q-78 0 -142.5 22.5t-122.5 75t-91 150t-33 232.5zM319 487 q0 -213 67 -309t204 -96q125 0 196.5 108.5t71.5 290.5q0 213 -66.5 310.5t-201.5 97.5q-127 0 -199 -110t-72 -292z" />
<glyph unicode="r" horiz-adv-x="909" d="M72 0v86h57q135 0 135 119v573q0 100 -92 101h-100v92q201 0 348 16v-207h4q55 113 130 160t196 47q72 0 145 -8v-262h-107q-29 143 -135 143q-76 0 -146.5 -77.5t-70.5 -239.5v-338q0 -119 135 -119h82v-86h-581z" />
<glyph unicode="s" horiz-adv-x="1024" d="M133 705q0 137 100.5 213.5t301.5 76.5q152 0 296 -47v-276h-106q0 135 -43 180t-160 45q-209 0 -209 -158q0 -63 59.5 -100t144.5 -57.5t170 -48t144.5 -92t59.5 -169.5q0 -137 -105.5 -217t-298.5 -80q-180 0 -350 41v303h119q12 -152 49 -198.5t174 -46.5 q231 0 232 174q0 70 -59.5 109.5t-144.5 60t-170 45t-144.5 84.5t-59.5 158z" />
<glyph unicode="t" horiz-adv-x="796" d="M61 879v92q133 0 177.5 60.5t54.5 211.5h119v-272h264v-92h-264v-609q0 -111 26.5 -149.5t79.5 -38.5q57 0 86 45t31 152h127q0 -162 -67.5 -233t-207.5 -71q-129 0 -192.5 62.5t-63.5 200.5q0 49 4.5 232t4.5 239v170h-179z" />
<glyph unicode="u" horiz-adv-x="1251" d="M61 879v92q211 0 336 16v-620q0 -150 47.5 -211.5t149.5 -61.5q109 0 179.5 87t70.5 241q0 49 4 163.5t4 166.5q0 72 -25.5 99.5t-91.5 27.5h-76v92q305 0 365 16v-751q0 -96 24.5 -123t98.5 -27h43v-86h-328q-2 23 -3 79t-1 83h-4q-92 -186 -319 -187q-309 0 -310 306 v481q0 68 -22.5 92.5t-71.5 24.5h-70z" />
<glyph unicode="v" d="M25 885v86h483v-86h-121q-57 0 -57 -51q0 -18 30 -103l220 -600l225 596q35 92 35 121q0 37 -68 37h-108v86h450v-86q-66 -2 -97.5 -31t-53.5 -88l-306 -778h-188l-317 807q-18 47 -44 65.5t-83 24.5z" />
<glyph unicode="w" horiz-adv-x="1705" d="M25 885v86h458v-86h-92q-80 0 -80 -54q0 -31 17 -86l170 -614h4l270 840h193l252 -840h4l190 651q12 45 12 64q0 39 -77 39h-86v86h421v-86q-63 -6 -94 -35t-53 -98l-229 -764h-189l-260 839h-4l-268 -839h-193l-223 760q-20 72 -47.5 100.5t-95.5 36.5z" />
<glyph unicode="x" d="M25 0v86q76 2 122 30.5t107 104.5l219 271l-244 299q-41 49 -75.5 67.5t-96.5 26.5v86h480v-86h-56q-80 0 -80 -37q0 -25 21 -49l168 -221l162 206q35 43 34 68q0 33 -49 33h-69v86h422v-86q-59 -2 -96.5 -19.5t-75.5 -62.5l-256 -295l210 -260q84 -104 125 -130t117 -32 v-86h-502v86h72q74 0 74 37q0 25 -17 47l-188 252l-174 -219q-51 -63 -51 -80q0 -37 53 -37h86v-86h-442z" />
<glyph unicode="y" d="M25 885v86h483v-86h-92q-80 0 -80 -45q0 -23 37 -117l207 -533l227 555q31 72 31 95q0 27 -22.5 36t-76.5 9h-75v86h450v-86q-78 0 -112.5 -35t-75.5 -133l-351 -856q-51 -125 -51 -162q0 -53 92 -53h76v-86h-495v86q109 0 146.5 23.5t72.5 113.5l78 201l-304 761 q-25 61 -60 97.5t-105 42.5z" />
<glyph unicode="z" horiz-adv-x="1024" d="M109 0v135l602 729h-320q-78 0 -101.5 -40t-25.5 -169h-127v316h766v-127l-610 -738h356q86 0 112.5 37t26.5 185h127v-328h-806z" />
<glyph unicode="{" horiz-adv-x="569" d="M61 635q92 29 124 78t32 147v336q0 160 64.5 217t177.5 57h90v-36q-94 -16 -131 -71.5t-37 -162.5v-311q0 -111 -28.5 -168t-110.5 -84v-4q82 -27 110.5 -84t28.5 -168v-311q0 -106 37 -161.5t131 -72.5v-37h-90q-113 0 -177.5 57.5t-64.5 217.5v336q0 98 -32 147 t-124 78z" />
<glyph unicode="|" horiz-adv-x="454" d="M160 -512v2048h135v-2048h-135z" />
<glyph unicode="}" horiz-adv-x="569" d="M20 -164q94 16 131 71.5t37 162.5v311q0 111 29 168t111 84v4q-82 27 -111 84t-29 168v311q0 106 -36.5 161.5t-131.5 72.5v36h91q113 0 177 -57t64 -217v-336q0 -98 32 -147t124 -78q-92 -29 -124 -78t-32 -147v-336q0 -160 -64.5 -217.5t-176.5 -57.5h-91v37z" />
<glyph unicode="~" horiz-adv-x="1228" d="M141 477q90 176 254 176q96 0 239.5 -67.5t201.5 -67.5q51 0 91 35t87 109l73 -103q-104 -176 -256 -176q-88 0 -235 67.5t-207 67.5q-109 0 -174 -143z" />
<glyph unicode="&#xa1;" horiz-adv-x="684" d="M225 868q0 127 117 127t117 -127t-117 -127t-117 127zM244 -305q0 10 4 100l35 832h118l35 -832q4 -90 4 -100q0 -49 -19.5 -70.5t-78.5 -21.5t-78.5 21.5t-19.5 70.5z" />
<glyph unicode="&#xa2;" d="M156 477q0 233 108.5 360.5t284.5 151.5v119h98v-113q182 -4 316 -63v-287h-144q0 129 -38 188.5t-134 63.5v-823q182 20 201 248h135q0 -170 -96 -253t-240 -94v-141h-98v141q-393 37 -393 502zM344 473q0 -174 57.5 -268t147.5 -123v809q-205 -84 -205 -418z" />
<glyph unicode="&#xa3;" d="M63 0v92h66q96 0 128 21.5t32 103.5v432h-183v107h183v231q0 381 432 381q162 0 326 -33v-309h-136q0 141 -37.5 188.5t-158.5 47.5q-254 0 -254 -304v-202h256v-107h-256v-543h307q102 0 133 30t31 134v170h143v-440h-1012z" />
<glyph unicode="&#xa4;" d="M55 244l115 114q-109 133 -109 310q0 178 109 309l-115 115l92 88l113 -111q133 106 309 106.5t310 -108.5l112 113l92 -88l-112 -113q106 -135 106 -311t-108 -310l114 -114l-92 -88l-112 112q-131 -109 -310 -108q-176 0 -311 106l-111 -110zM205 667.5 q0 -161.5 103.5 -267t261 -105.5t261 105.5t103.5 267t-103.5 267t-261 105.5t-261 -105.5t-103.5 -267z" />
<glyph unicode="&#xa5;" d="M25 1243v92h450v-92h-69q-82 0 -82 -37q0 -27 22 -78l242 -542l250 530q25 53 24 80q0 47 -61 47h-92v92h405v-92h-53q-37 0 -76 -80l-276 -577h213v-107h-267l-10 -22v-92h277v-107h-277v-18q0 -94 24.5 -121t86.5 -27h84v-92h-557v92h96q61 0 85.5 26.5t24.5 121.5v18 h-276v107h276v92l-10 22h-266v107h221l-270 583q-33 74 -88 74h-51z" />
<glyph unicode="&#xa6;" horiz-adv-x="454" d="M160 -358v716h135v-716h-135zM160 666v716h135v-716h-135z" />
<glyph unicode="&#xa7;" d="M141 633q0 90 37 144t117 93q-92 76 -92 199q0 299 403 299q152 0 293 -51v-287h-119q-4 139 -41 185.5t-159 46.5q-100 0 -152.5 -49.5t-52.5 -114.5q0 -70 46 -112t206 -103q223 -86 296.5 -151.5t73.5 -178.5q0 -72 -34.5 -135.5t-100.5 -93.5q100 -63 100.5 -217 t-115.5 -235t-321 -81q-131 0 -348 55v312h119q0 -147 33 -195q20 -29 83.5 -47t143.5 -18q111 0 172.5 52t61.5 142q0 66 -67 112t-162 78.5t-191.5 71.5t-163 110t-66.5 169zM305 655q0 -45 32 -78.5t126 -74.5l287 -125q84 72 84 147q0 49 -33 82t-109 68l-297 133 q-90 -72 -90 -152z" />
<glyph unicode="&#xa8;" horiz-adv-x="569" d="M-6 1303q0 70 26.5 98.5t81.5 28.5q117 0 117 -115q0 -70 -26.5 -98.5t-81.5 -28.5q-117 0 -117 115zM350 1303q0 70 26.5 98.5t82.5 28.5q117 0 116 -115q0 -70 -26.5 -98.5t-81.5 -28.5q-117 0 -117 115z" />
<glyph unicode="&#xa9;" horiz-adv-x="1638" d="M119 667.5q0 290.5 204.5 495.5t495.5 205t496 -205t205 -495.5t-205 -495.5t-496 -205t-495.5 205t-204.5 495.5zM246 668q0 -250 163.5 -416t409.5 -166t410 166t164 416t-164 415.5t-410 165.5t-409.5 -165.5t-163.5 -415.5zM426 682q0 178 118 290.5t316 112.5 q106 0 183 -23.5t77 -57.5v-148h-37q-4 72 -57 120t-168 48q-129 0 -202.5 -94t-73.5 -242q0 -162 75.5 -261t216.5 -99q182 0 242 155h37l-29 -137q-6 -31 -80.5 -55.5t-193.5 -24.5q-197 0 -310.5 106.5t-113.5 309.5z" />
<glyph unicode="&#xaa;" horiz-adv-x="684" d="M25 920q0 92 67.5 145t208.5 53h137v58q0 131 -127 131q-82 0 -111.5 -32t-31.5 -95h-127q0 37 10 64.5t36 58t84 48t146 17.5q127 0 187.5 -44t60.5 -103q0 -35 -2 -131.5t-2 -128.5q0 -94 13.5 -112t84.5 -18v-61h-217v100h-4q-68 -115 -211 -114q-92 0 -147 44 t-55 120zM152 932q0 -39 32.5 -64.5t81.5 -25.5t91 26.5t57 61.5q25 57 24 127h-86q-200 0 -200 -125z" />
<glyph unicode="&#xab;" horiz-adv-x="909" d="M80 492l299 491h119l-246 -491l219 -492h-106zM412 492l299 491h118l-245 -491l219 -492h-107z" />
<glyph unicode="&#xac;" horiz-adv-x="1228" d="M96 655v136h1037v-545h-136v409h-901z" />
<glyph unicode="&#xad;" horiz-adv-x="796" d="M137 438v107h522v-107h-522z" />
<glyph unicode="&#xae;" horiz-adv-x="1638" d="M119 667.5q0 290.5 204.5 495.5t495.5 205t496 -205t205 -495.5t-205 -495.5t-496 -205t-495.5 205t-204.5 495.5zM246 668q0 -250 163.5 -416t409.5 -166t410 166t164 416t-164 415.5t-410 165.5t-409.5 -165.5t-163.5 -415.5zM477 305v37q98 0 98 76v538q0 68 -98 68 v37h385q96 0 164 -48t68 -141q0 -78 -45 -134t-115 -81l139 -215q66 -100 129 -100v-37h-158q-37 0 -114 119l-139 209h-80v-215q0 -47 22.5 -61.5t75.5 -14.5v-37h-332zM711 682h98q141 0 141 180q0 150 -145 150h-94v-330z" />
<glyph unicode="&#xaf;" horiz-adv-x="569" d="M2 1249v119h565v-119h-565z" />
<glyph unicode="&#xb0;" horiz-adv-x="819" d="M117 1075q0 121 86 207t206.5 86t206.5 -86t86 -207t-86 -207t-206.5 -86t-206.5 86t-86 207zM223 1075q0 -76 55.5 -131t131 -55t131 55t55.5 131t-55.5 131.5t-131 55.5t-131 -55.5t-55.5 -131.5z" />
<glyph unicode="&#xb1;" horiz-adv-x="1228" d="M96 0v135h1037v-135h-1037zM96 557v135h451v344h135v-344h451v-135h-451v-344h-135v344h-451z" />
<glyph unicode="&#xb2;" horiz-adv-x="741" d="M68 545v92q209 184 303 278.5t120.5 140.5t26.5 99q0 45 -39 80t-106 35q-59 0 -96 -34t-46.5 -67.5t-9.5 -66.5h-143q0 41 4 72.5t21.5 70.5t47 63.5t87 42t135.5 17.5q301 0 301 -194q0 -90 -75 -175.5t-368 -322.5v-4h299q51 0 52 80h92v-207h-606z" />
<glyph unicode="&#xb3;" horiz-adv-x="741" d="M57 770h144q2 -59 35.5 -102t109.5 -43q88 0 135 40t47 97q0 39 -16 66.5t-37.5 41t-63.5 20.5t-70 8t-81 1v107q47 0 71.5 1t63.5 8t58.5 22.5t35 44t15.5 71.5q0 51 -42 84t-112 33q-66 0 -95.5 -45t-29.5 -86h-143q0 90 64.5 159.5t215.5 69.5q141 0 219 -57.5 t78 -165.5q0 -68 -46 -117t-119 -70v-4q190 -29 190 -200q0 -115 -86 -171.5t-231 -56.5q-100 0 -166 20.5t-94.5 59.5t-39 75t-10.5 89z" />
<glyph unicode="&#xb4;" horiz-adv-x="569" d="M150 1184l188 286h217l-270 -286h-135z" />
<glyph unicode="&#xb5;" horiz-adv-x="1251" d="M61 879v92q211 0 336 16v-620q0 -150 47.5 -211.5t149.5 -61.5q109 0 179.5 87t70.5 241q0 49 4 163.5t4 166.5q0 72 -25.5 99.5t-91.5 27.5h-76v92q305 0 365 16v-751q0 -96 24.5 -123t98.5 -27h43v-86h-328q-2 23 -3 79t-1 83h-4q-92 -186 -313 -187q-86 0 -144 39 v-454h-172v1202q0 68 -22.5 92.5t-71.5 24.5h-70z" />
<glyph unicode="&#xb6;" horiz-adv-x="1228" d="M131 967q0 195 106.5 281.5t329.5 86.5h531v-86h-31q-135 0 -135 -119v-1101q0 -119 135 -119h31v-86h-301v1438h-148v-1438h-301v86h31q135 0 135 119v544q-383 1 -383 394zM274 963q0 -156 63.5 -235t176.5 -81v615q-111 0 -175.5 -72.5t-64.5 -226.5z" />
<glyph unicode="&#xb7;" horiz-adv-x="569" d="M176 575.5q0 45.5 32 77t77 31.5t76.5 -31.5t31.5 -77t-31.5 -77t-76.5 -31.5t-77 31.5t-32 77z" />
<glyph unicode="&#xb8;" horiz-adv-x="569" d="M92 -418l35 82q78 -31 133 -31q119 0 119 84t-100 84q-25 0 -80 -16l-35 39l129 176h98l-96 -119h4q12 6 59 6q80 0 128.5 -41t48.5 -122q0 -90 -69 -139.5t-183 -49.5q-87 0 -191 47z" />
<glyph unicode="&#xb9;" horiz-adv-x="741" d="M156 545v73h55q49 0 67.5 19.5t18.5 73.5v446q0 78 -78 78h-63v74q141 4 297 41v-656q0 -45 16 -60.5t66 -15.5h51v-73h-430z" />
<glyph unicode="&#xba;" horiz-adv-x="684" d="M20 1061q0 156 89.5 231.5t234.5 75.5q143 0 231.5 -75.5t88.5 -231.5t-88.5 -230.5t-231.5 -74.5q-145 0 -234.5 74.5t-89.5 230.5zM164 1061q0 -119 43 -175.5t137 -56.5q92 0 134 56.5t42 175.5q0 121 -42 177t-134 56q-94 0 -137 -56t-43 -177z" />
<glyph unicode="&#xbb;" horiz-adv-x="909" d="M80 0l246 492l-220 491h107l285 -491l-299 -492h-119zM412 0l245 492l-219 491h107l284 -491l-299 -492h-118z" />
<glyph unicode="&#xbc;" horiz-adv-x="1708" d="M156 545v73h55q49 0 67.5 19.5t18.5 73.5v446q0 78 -78 78h-63v74q141 4 297 41v-656q0 -45 16 -60.5t66 -15.5h51v-73h-430zM283 -88l919 1511h119l-920 -1511h-118zM848 211v98l395 482h164v-482h184v-98h-184v-86q0 -51 84 -51h53v-74h-409v74h53q84 0 84 51v86h-424z M975 309h297v355h-4z" />
<glyph unicode="&#xbd;" horiz-adv-x="1708" d="M156 545v73h55q49 0 67.5 19.5t18.5 73.5v446q0 78 -78 78h-63v74q141 4 297 41v-656q0 -45 16 -60.5t66 -15.5h51v-73h-430zM283 -88l919 1511h119l-920 -1511h-118zM985 0v92q209 184 303 278.5t121 140.5t27 99q0 45 -39 80t-107 35q-59 0 -96 -34t-46 -67.5t-9 -66.5 h-144q0 41 4.5 73t21.5 70.5t47 63t87 42t135 17.5q301 0 301 -194q0 -90 -74.5 -175t-367.5 -323v-4h299q51 0 51 80h92v-207h-606z" />
<glyph unicode="&#xbe;" horiz-adv-x="1708" d="M57 770h144q2 -59 35.5 -102t109.5 -43q88 0 135 40t47 97q0 39 -16 66.5t-37.5 41t-63.5 20.5t-70 8t-81 1v107q47 0 71.5 1t63.5 8t58.5 22.5t35 44t15.5 71.5q0 51 -42 84t-112 33q-66 0 -95.5 -45t-29.5 -86h-143q0 90 64.5 159.5t215.5 69.5q141 0 219 -57.5 t78 -165.5q0 -68 -46 -117t-119 -70v-4q190 -29 190 -200q0 -115 -86 -171.5t-231 -56.5q-100 0 -166 20.5t-94.5 59.5t-39 75t-10.5 89zM336 -88l919 1511h119l-919 -1511h-119zM907 211v98l396 482h163v-482h185v-98h-185v-86q0 -51 84 -51h54v-74h-410v74h53q84 0 84 51 v86h-424zM1034 309h297v355h-4z" />
<glyph unicode="&#xbf;" horiz-adv-x="909" d="M109 -88q0 172 124 291l136 131q63 63 63 217v76h119q8 -139 8 -164q0 -68 -26.5 -122t-65.5 -93t-78 -79t-65.5 -99.5t-26.5 -132.5q0 -115 48 -175.5t132 -60.5q94 0 141.5 63.5t47.5 176.5h163q0 -176 -87 -257t-261 -81q-178 0 -275 87t-97 222zM375 868 q0 127 116.5 127t116.5 -127t-116.5 -127t-116.5 127z" />
<glyph unicode="&#xc0;" horiz-adv-x="1366" d="M25 0v92q68 0 93 14.5t44 67.5l416 1161h217l387 -1087q35 -94 62.5 -125t70.5 -31h26v-92h-512v92h99q94 0 94 49q0 25 -21 80l-63 185h-543l-59 -173q-25 -70 -25 -92q0 -27 17.5 -38t70.5 -11h88v-92h-462zM414 1706h217l188 -287h-135zM432 512h469l-233 680h-4z" />
<glyph unicode="&#xc1;" horiz-adv-x="1366" d="M25 0v92q68 0 93 14.5t44 67.5l416 1161h217l387 -1087q35 -94 62.5 -125t70.5 -31h26v-92h-512v92h99q94 0 94 49q0 25 -21 80l-63 185h-543l-59 -173q-25 -70 -25 -92q0 -27 17.5 -38t70.5 -11h88v-92h-462zM432 512h469l-233 680h-4zM549 1419l188 287h217l-270 -287 h-135z" />
<glyph unicode="&#xc2;" horiz-adv-x="1366" d="M25 0v92q68 0 93 14.5t44 67.5l416 1161h217l387 -1087q35 -94 62.5 -125t70.5 -31h26v-92h-512v92h99q94 0 94 49q0 25 -21 80l-63 185h-543l-59 -173q-25 -70 -25 -92q0 -27 17.5 -38t70.5 -11h88v-92h-462zM387 1419l203 287h188l203 -287h-164l-133 189l-133 -189 h-164zM432 512h469l-233 680h-4z" />
<glyph unicode="&#xc3;" horiz-adv-x="1366" d="M25 0v92q68 0 93 14.5t44 67.5l416 1161h217l387 -1087q35 -94 62.5 -125t70.5 -31h26v-92h-512v92h99q94 0 94 49q0 25 -21 80l-63 185h-543l-59 -173q-25 -70 -25 -92q0 -27 17.5 -38t70.5 -11h88v-92h-462zM336 1432q25 219 213 219q70 0 160 -37q10 -4 38.5 -17.5 t45 -18.5t32.5 -5q90 0 103 92h104q-12 -96 -67.5 -157.5t-137.5 -61.5q-51 0 -159 39q-104 39 -139 39t-63 -25.5t-36 -66.5h-94zM432 512h469l-233 680h-4z" />
<glyph unicode="&#xc4;" horiz-adv-x="1366" d="M25 0v92q68 0 93 14.5t44 67.5l416 1161h217l387 -1087q35 -94 62.5 -125t70.5 -31h26v-92h-512v92h99q94 0 94 49q0 25 -21 80l-63 185h-543l-59 -173q-25 -70 -25 -92q0 -27 17.5 -38t70.5 -11h88v-92h-462zM393 1538q0 70 26.5 98.5t82.5 28.5q117 0 116 -115 q0 -70 -26.5 -98.5t-81.5 -28.5q-117 0 -117 115zM432 512h469l-233 680h-4zM750 1538q0 70 26.5 98.5t81.5 28.5q117 0 117 -115q0 -70 -26.5 -98.5t-82.5 -28.5q-116 0 -116 115z" />
<glyph unicode="&#xc5;" horiz-adv-x="1366" d="M25 0v92q68 0 93 14.5t44 67.5l416 1161h217l387 -1087q35 -94 62.5 -125t70.5 -31h26v-92h-512v92h99q94 0 94 49q0 25 -21 80l-63 185h-543l-59 -173q-25 -70 -25 -92q0 -27 17.5 -38t70.5 -11h88v-92h-462zM432 512h469l-233 680h-4zM475 1583q0 86 61.5 147.5 t147.5 61.5t147.5 -61.5t61.5 -147.5t-61.5 -147.5t-147.5 -61.5t-147.5 61.5t-61.5 147.5zM561 1583q0 -51 36 -87t87 -36t87 36t36 87t-36 87t-87 36t-87 -36t-36 -87z" />
<glyph unicode="&#xc6;" horiz-adv-x="1933" d="M25 0v92q49 0 79.5 19.5t57.5 72.5l450 918q33 66 33 86q0 55 -92 55h-102v92h1304v-331h-135v81q0 96 -39 120t-160 24h-424l74 -496h244q82 0 108.5 32t26.5 153h113v-490h-113q0 133 -25.5 166t-136.5 33h-198l75 -521h332q94 0 119.5 42t25.5 196h136v-344h-1010v92 h115q45 0 69.5 23.5t24.5 54.5q0 18 -10 86l-23 150h-524l-78 -162q-37 -74 -37 -101q0 -51 76 -51h59v-92h-415zM473 512h455l-103 717h-4z" />
<glyph unicode="&#xc7;" horiz-adv-x="1366" d="M135 606q0 369 165 565.5t472 196.5q199 0 387 -61v-377h-135q-8 199 -50 265.5t-202 66.5q-440 0 -440 -631q0 -557 436 -557q158 0 206 69.5t56 264.5h144l-17 -381q-211 -57 -391 -64l-70 -82h4q12 6 60 6q80 0 128 -41t48 -122q0 -90 -68.5 -139.5t-183.5 -49.5 q-86 0 -190 47l34 82q78 -31 134 -31q119 0 118.5 84t-100.5 84q-25 0 -80 -16l-35 39l109 143q-244 23 -391.5 174.5t-147.5 464.5z" />
<glyph unicode="&#xc8;" horiz-adv-x="1366" d="M74 0v92h102q74 0 103.5 26.5t29.5 121.5v856q0 94 -29.5 120.5t-103.5 26.5h-102v92h1114v-331h-135v81q0 96 -39 120t-160 24h-365v-496h201q82 0 108.5 32t26.5 153h113v-490h-113q0 133 -25.5 166t-135.5 33h-175v-521h441q94 0 119.5 42t25.5 196h135v-344h-1136z M414 1706h217l188 -287h-135z" />
<glyph unicode="&#xc9;" horiz-adv-x="1366" d="M74 0v92h102q74 0 103.5 26.5t29.5 121.5v856q0 94 -29.5 120.5t-103.5 26.5h-102v92h1114v-331h-135v81q0 96 -39 120t-160 24h-365v-496h201q82 0 108.5 32t26.5 153h113v-490h-113q0 133 -25.5 166t-135.5 33h-175v-521h441q94 0 119.5 42t25.5 196h135v-344h-1136z M549 1419l188 287h217l-270 -287h-135z" />
<glyph unicode="&#xca;" horiz-adv-x="1366" d="M74 0v92h102q74 0 103.5 26.5t29.5 121.5v856q0 94 -29.5 120.5t-103.5 26.5h-102v92h1114v-331h-135v81q0 96 -39 120t-160 24h-365v-496h201q82 0 108.5 32t26.5 153h113v-490h-113q0 133 -25.5 166t-135.5 33h-175v-521h441q94 0 119.5 42t25.5 196h135v-344h-1136z M387 1419l203 287h188l203 -287h-164l-133 189l-133 -189h-164z" />
<glyph unicode="&#xcb;" horiz-adv-x="1366" d="M74 0v92h102q74 0 103.5 26.5t29.5 121.5v856q0 94 -29.5 120.5t-103.5 26.5h-102v92h1114v-331h-135v81q0 96 -39 120t-160 24h-365v-496h201q82 0 108.5 32t26.5 153h113v-490h-113q0 133 -25.5 166t-135.5 33h-175v-521h441q94 0 119.5 42t25.5 196h135v-344h-1136z M393 1538q0 70 26.5 98.5t82.5 28.5q117 0 116 -115q0 -70 -26.5 -98.5t-81.5 -28.5q-117 0 -117 115zM750 1538q0 70 26.5 98.5t81.5 28.5q117 0 117 -115q0 -70 -26.5 -98.5t-82.5 -28.5q-116 0 -116 115z" />
<glyph unicode="&#xcc;" horiz-adv-x="798" d="M57 0v92h119q74 0 103.5 26.5t29.5 121.5v856q0 94 -29.5 120.5t-103.5 26.5h-119v92h684v-92h-118q-74 0 -104 -26.5t-30 -120.5v-856q0 -94 30 -121t104 -27h118v-92h-684zM129 1706h217l189 -287h-136z" />
<glyph unicode="&#xcd;" horiz-adv-x="798" d="M57 0v92h119q74 0 103.5 26.5t29.5 121.5v856q0 94 -29.5 120.5t-103.5 26.5h-119v92h684v-92h-118q-74 0 -104 -26.5t-30 -120.5v-856q0 -94 30 -121t104 -27h118v-92h-684zM264 1419l189 287h217l-271 -287h-135z" />
<glyph unicode="&#xce;" horiz-adv-x="798" d="M57 0v92h119q74 0 103.5 26.5t29.5 121.5v856q0 94 -29.5 120.5t-103.5 26.5h-119v92h684v-92h-118q-74 0 -104 -26.5t-30 -120.5v-856q0 -94 30 -121t104 -27h118v-92h-684zM102 1419l203 287h189l202 -287h-164l-133 189l-133 -189h-164z" />
<glyph unicode="&#xcf;" horiz-adv-x="798" d="M57 0v92h119q74 0 103.5 26.5t29.5 121.5v856q0 94 -29.5 120.5t-103.5 26.5h-119v92h684v-92h-118q-74 0 -104 -26.5t-30 -120.5v-856q0 -94 30 -121t104 -27h118v-92h-684zM109 1538q0 70 26.5 98.5t81.5 28.5q117 0 117 -115q0 -70 -26.5 -98.5t-82.5 -28.5 q-116 0 -116 115zM465 1538q0 70 26.5 98.5t81.5 28.5q117 0 117 -115q0 -70 -26.5 -98.5t-81.5 -28.5q-117 0 -117 115z" />
<glyph unicode="&#xd0;" horiz-adv-x="1478" d="M74 0v92h102q74 0 103.5 26.5t29.5 121.5v387h-235v118h235v351q0 94 -29.5 120.5t-103.5 26.5h-102v92h569q127 0 227.5 -15t196.5 -59t159.5 -118t102.5 -198t39 -290t-45 -287.5t-115.5 -190t-175 -110.5t-201 -54.5t-217.5 -12.5h-540zM489 106h160q256 0 389 126 t133 440q0 348 -184 479q-68 47 -169 62.5t-329 15.5v-484h322v-118h-322v-521z" />
<glyph unicode="&#xd1;" horiz-adv-x="1593" d="M68 0v92h118q74 0 103.5 26.5t29.5 121.5v856q0 94 -29.5 120.5t-103.5 26.5h-118v92h514q33 -63 138 -260.5t165.5 -314.5t144.5 -287t141 -301h5v934q0 80 -28 108.5t-110 28.5h-98v92h586v-92h-109q-57 0 -81.5 -31.5t-24.5 -105.5v-1106h-217l-635 1200h-4v-960 q0 -94 29.5 -121t103.5 -27h102v-92h-622zM449 1432q25 219 213 219q70 0 159 -37q10 -4 39 -17.5t45.5 -18.5t32.5 -5q90 0 102 92h105q-12 -96 -67.5 -157.5t-137.5 -61.5q-51 0 -160 39q-104 39 -139 39t-62.5 -25.5t-35.5 -66.5h-94z" />
<glyph unicode="&#xd2;" horiz-adv-x="1478" d="M135 668q0 348 159 524t445.5 176t445 -176t158.5 -524q0 -338 -160.5 -519.5t-443 -181.5t-443.5 181.5t-161 519.5zM332 668q0 -594 407.5 -594t407.5 594t-407.5 594t-407.5 -594zM469 1706h217l188 -287h-135z" />
<glyph unicode="&#xd3;" horiz-adv-x="1478" d="M135 668q0 348 159 524t445.5 176t445 -176t158.5 -524q0 -338 -160.5 -519.5t-443 -181.5t-443.5 181.5t-161 519.5zM332 668q0 -594 407.5 -594t407.5 594t-407.5 594t-407.5 -594zM604 1419l189 287h217l-271 -287h-135z" />
<glyph unicode="&#xd4;" horiz-adv-x="1478" d="M135 668q0 348 159 524t445.5 176t445 -176t158.5 -524q0 -338 -160.5 -519.5t-443 -181.5t-443.5 181.5t-161 519.5zM332 668q0 -594 407.5 -594t407.5 594t-407.5 594t-407.5 -594zM442 1419l203 287h189l202 -287h-164l-133 189l-133 -189h-164z" />
<glyph unicode="&#xd5;" horiz-adv-x="1478" d="M135 668q0 348 159 524t445.5 176t445 -176t158.5 -524q0 -338 -160.5 -519.5t-443 -181.5t-443.5 181.5t-161 519.5zM332 668q0 -594 407.5 -594t407.5 594t-407.5 594t-407.5 -594zM391 1432q25 219 213 219q70 0 160 -37q10 -4 38.5 -17.5t45 -18.5t33.5 -5 q90 0 102 92h104q-12 -96 -67 -157.5t-137 -61.5q-51 0 -160 39q-104 39 -139 39t-62.5 -25.5t-36.5 -66.5h-94z" />
<glyph unicode="&#xd6;" horiz-adv-x="1478" d="M135 668q0 348 159 524t445.5 176t445 -176t158.5 -524q0 -338 -160.5 -519.5t-443 -181.5t-443.5 181.5t-161 519.5zM332 668q0 -594 407.5 -594t407.5 594t-407.5 594t-407.5 -594zM449 1538q0 70 26.5 98.5t81.5 28.5q117 0 117 -115q0 -70 -26.5 -98.5t-82.5 -28.5 q-116 0 -116 115zM805 1538q0 70 26.5 98.5t81.5 28.5q117 0 117 -115q0 -70 -26.5 -98.5t-81.5 -28.5q-117 0 -117 115z" />
<glyph unicode="&#xd7;" horiz-adv-x="1228" d="M147 145l373 373l-373 373l95 94l372 -373l373 373l94 -94l-372 -373l372 -373l-94 -94l-373 373l-372 -373z" />
<glyph unicode="&#xd8;" horiz-adv-x="1478" d="M135 12l139 166q-139 176 -139 490q0 348 159 524t445 176q258 0 410 -139l127 151l67 -57l-133 -162q133 -174 133 -493q0 -338 -160.5 -519.5t-443.5 -181.5q-252 0 -405 144l-131 -156zM332 668q0 -219 55 -355l660 793q-94 156 -308 156q-407 0 -407 -594zM430 227 q100 -154 309 -153q408 0 408 594q0 221 -55 352z" />
<glyph unicode="&#xd9;" horiz-adv-x="1478" d="M37 1243v92h631v-92h-103q-86 0 -109.5 -29.5t-23.5 -109.5v-674q0 -188 88 -272t228 -84q154 0 242.5 89t88.5 275v719q0 49 -29.5 67.5t-88.5 18.5h-109v92h590v-92h-107q-72 0 -96.5 -27.5t-24.5 -103.5v-674q0 -233 -133 -352t-360 -119q-205 0 -337 111.5 t-132 333.5v694q0 86 -23.5 111.5t-105.5 25.5h-86zM469 1706h217l188 -287h-135z" />
<glyph unicode="&#xda;" horiz-adv-x="1478" d="M37 1243v92h631v-92h-103q-86 0 -109.5 -29.5t-23.5 -109.5v-674q0 -188 88 -272t228 -84q154 0 242.5 89t88.5 275v719q0 49 -29.5 67.5t-88.5 18.5h-109v92h590v-92h-107q-72 0 -96.5 -27.5t-24.5 -103.5v-674q0 -233 -133 -352t-360 -119q-205 0 -337 111.5 t-132 333.5v694q0 86 -23.5 111.5t-105.5 25.5h-86zM604 1419l189 287h217l-271 -287h-135z" />
<glyph unicode="&#xdb;" horiz-adv-x="1478" d="M37 1243v92h631v-92h-103q-86 0 -109.5 -29.5t-23.5 -109.5v-674q0 -188 88 -272t228 -84q154 0 242.5 89t88.5 275v719q0 49 -29.5 67.5t-88.5 18.5h-109v92h590v-92h-107q-72 0 -96.5 -27.5t-24.5 -103.5v-674q0 -233 -133 -352t-360 -119q-205 0 -337 111.5 t-132 333.5v694q0 86 -23.5 111.5t-105.5 25.5h-86zM442 1419l203 287h189l202 -287h-164l-133 189l-133 -189h-164z" />
<glyph unicode="&#xdc;" horiz-adv-x="1478" d="M37 1243v92h631v-92h-103q-86 0 -109.5 -29.5t-23.5 -109.5v-674q0 -188 88 -272t228 -84q154 0 242.5 89t88.5 275v719q0 49 -29.5 67.5t-88.5 18.5h-109v92h590v-92h-107q-72 0 -96.5 -27.5t-24.5 -103.5v-674q0 -233 -133 -352t-360 -119q-205 0 -337 111.5 t-132 333.5v694q0 86 -23.5 111.5t-105.5 25.5h-86zM449 1538q0 70 26.5 98.5t81.5 28.5q117 0 117 -115q0 -70 -26.5 -98.5t-82.5 -28.5q-116 0 -116 115zM805 1538q0 70 26.5 98.5t81.5 28.5q117 0 117 -115q0 -70 -26.5 -98.5t-81.5 -28.5q-117 0 -117 115z" />
<glyph unicode="&#xdd;" horiz-adv-x="1366" d="M25 1243v92h544v-92h-82q-98 0 -98 -37q0 -31 27 -78l293 -542l297 530q29 53 28 80q0 47 -73 47h-111v92h491v-92h-59q-31 0 -51.5 -15.5t-48.5 -64.5l-410 -706v-217q0 -94 29.5 -121t103.5 -27h103v-92h-668v92h119q74 0 103.5 26.5t29.5 121.5v217l-395 712 q-25 43 -47.5 58.5t-59.5 15.5h-65zM549 1419l188 287h217l-270 -287h-135z" />
<glyph unicode="&#xde;" horiz-adv-x="1251" d="M74 0v92h119q74 0 103.5 26.5t29.5 121.5v856q0 94 -30 120.5t-103 26.5h-119v92h684v-92h-119q-74 0 -103.5 -26.5t-29.5 -120.5v-19h256q180 0 291.5 -90t111.5 -278q0 -393 -530 -394h-129v-75q0 -94 29.5 -121t103.5 -27h119v-92h-684zM506 422h106q197 0 281 73.5 t84 211.5q0 143 -78 203.5t-242 60.5h-151v-549z" />
<glyph unicode="&#xdf;" horiz-adv-x="1251" d="M47 0v86h72q92 0 92 125v713q0 547 453 546q176 0 271 -85t95 -250q0 -102 -33.5 -143.5t-126.5 -67.5q-94 -29 -128.5 -64t-34.5 -84q0 -59 46 -98t111.5 -62.5t131 -54.5t111.5 -96.5t46 -165.5q0 -160 -114.5 -242t-282.5 -82q-139 0 -246 25v266h119 q4 -117 31.5 -157.5t109.5 -40.5q84 0 147.5 56t63.5 155q0 74 -47 118.5t-113.5 67t-133 49.5t-114 86t-47.5 156q0 168 197 231q82 27 108.5 57.5t26.5 98.5q0 115 -57.5 175t-147.5 60q-121 0 -195.5 -106.5t-74.5 -335.5v-936h-336z" />
<glyph unicode="&#xe0;" d="M125 248q0 150 102.5 240t309.5 90h213v108q0 106 -51.5 161.5t-145.5 55.5q-127 0 -171 -53t-48 -166h-180q2 59 16 106.5t53 97.5t125 78.5t215 28.5q170 0 264.5 -66.5t94.5 -197.5q0 -72 -2 -227.5t-2 -239.5q0 -125 24.5 -151.5t132.5 -26.5v-86h-313v168h-4 q-49 -88 -124 -140.5t-210 -52.5q-133 0 -216 74t-83 199zM299 1446h217l189 -287h-136zM305 268q0 -82 50.5 -128t129.5 -46q78 0 141.5 45t86.5 103q37 90 37 243h-132q-313 0 -313 -217z" />
<glyph unicode="&#xe1;" d="M125 248q0 150 102.5 240t309.5 90h213v108q0 106 -51.5 161.5t-145.5 55.5q-127 0 -171 -53t-48 -166h-180q2 59 16 106.5t53 97.5t125 78.5t215 28.5q170 0 264.5 -66.5t94.5 -197.5q0 -72 -2 -227.5t-2 -239.5q0 -125 24.5 -151.5t132.5 -26.5v-86h-313v168h-4 q-49 -88 -124 -140.5t-210 -52.5q-133 0 -216 74t-83 199zM305 268q0 -82 50.5 -128t129.5 -46q78 0 141.5 45t86.5 103q37 90 37 243h-132q-313 0 -313 -217zM434 1159l189 287h217l-271 -287h-135z" />
<glyph unicode="&#xe2;" d="M125 248q0 150 102.5 240t309.5 90h213v108q0 106 -51.5 161.5t-145.5 55.5q-127 0 -171 -53t-48 -166h-180q2 59 16 106.5t53 97.5t125 78.5t215 28.5q170 0 264.5 -66.5t94.5 -197.5q0 -72 -2 -227.5t-2 -239.5q0 -125 24.5 -151.5t132.5 -26.5v-86h-313v168h-4 q-49 -88 -124 -140.5t-210 -52.5q-133 0 -216 74t-83 199zM272 1159l203 287h189l202 -287h-164l-133 189l-133 -189h-164zM305 268q0 -82 50.5 -128t129.5 -46q78 0 141.5 45t86.5 103q37 90 37 243h-132q-313 0 -313 -217z" />
<glyph unicode="&#xe3;" d="M125 248q0 150 102.5 240t309.5 90h213v108q0 106 -51.5 161.5t-145.5 55.5q-127 0 -171 -53t-48 -166h-180q2 59 16 106.5t53 97.5t125 78.5t215 28.5q170 0 264.5 -66.5t94.5 -197.5q0 -72 -2 -227.5t-2 -239.5q0 -125 24.5 -151.5t132.5 -26.5v-86h-313v168h-4 q-49 -88 -124 -140.5t-210 -52.5q-133 0 -216 74t-83 199zM221 1171q25 219 213 220q70 0 160 -37q10 -4 39 -17.5t45 -18.5t33 -5q90 0 102 92h105q-12 -96 -67.5 -157.5t-137.5 -61.5q-51 0 -160 39q-104 39 -139 39t-62.5 -26t-36.5 -67h-94zM305 268q0 -82 50.5 -128 t129.5 -46q78 0 141.5 45t86.5 103q37 90 37 243h-132q-313 0 -313 -217z" />
<glyph unicode="&#xe4;" d="M125 248q0 150 102.5 240t309.5 90h213v108q0 106 -51.5 161.5t-145.5 55.5q-127 0 -171 -53t-48 -166h-180q2 59 16 106.5t53 97.5t125 78.5t215 28.5q170 0 264.5 -66.5t94.5 -197.5q0 -72 -2 -227.5t-2 -239.5q0 -125 24.5 -151.5t132.5 -26.5v-86h-313v168h-4 q-49 -88 -124 -140.5t-210 -52.5q-133 0 -216 74t-83 199zM279 1278q0 70 26.5 98.5t81.5 28.5q117 0 117 -115q0 -70 -26.5 -98.5t-82.5 -28.5q-116 0 -116 115zM305 268q0 -82 50.5 -128t129.5 -46q78 0 141.5 45t86.5 103q37 90 37 243h-132q-313 0 -313 -217zM635 1278 q0 70 26.5 98.5t81.5 28.5q117 0 117 -115q0 -70 -26.5 -98.5t-81.5 -28.5q-117 0 -117 115z" />
<glyph unicode="&#xe5;" d="M125 248q0 150 102.5 240t309.5 90h213v108q0 106 -51.5 161.5t-145.5 55.5q-127 0 -171 -53t-48 -166h-180q2 59 16 106.5t53 97.5t125 78.5t215 28.5q170 0 264.5 -66.5t94.5 -197.5q0 -72 -2 -227.5t-2 -239.5q0 -125 24.5 -151.5t132.5 -26.5v-86h-313v168h-4 q-49 -88 -124 -140.5t-210 -52.5q-133 0 -216 74t-83 199zM305 268q0 -82 50.5 -128t129.5 -46q78 0 141.5 45t86.5 103q37 90 37 243h-132q-313 0 -313 -217zM360 1333q0 86 61.5 147.5t147.5 61.5t147.5 -61.5t61.5 -147.5t-61.5 -147.5t-147.5 -61.5t-147.5 61.5 t-61.5 147.5zM446 1333q0 -51 36 -87t87.5 -36t87 36t35.5 87t-35.5 87t-87 36t-87.5 -36t-36 -87z" />
<glyph unicode="&#xe6;" horiz-adv-x="1593" d="M125 254q0 164 113.5 244t365.5 80h119v63q0 119 -51 187.5t-146 68.5q-182 0 -194 -192h-156q4 152 106.5 221t249.5 69q96 0 173 -41t114 -112q43 66 122 109.5t171 43.5q172 0 281.5 -99t109.5 -300v-117h-616q2 -406 258 -405q182 0 203 231h143q-29 -330 -365 -330 q-248 0 -360 207q-45 -100 -135 -153.5t-211 -53.5q-141 0 -218 77t-77 202zM297 260q0 -86 47 -136t131 -50q244 0 248 405h-115q-154 0 -232.5 -59.5t-78.5 -159.5zM887 578h444q-2 152 -56 235.5t-151 83.5q-104 0 -167.5 -86t-69.5 -233z" />
<glyph unicode="&#xe7;" horiz-adv-x="1024" d="M109 477q0 260 135 389t340 129q190 0 331 -63v-287h-143q0 135 -42 193.5t-146 58.5q-127 0 -207 -108.5t-80 -315.5q0 -209 80 -304t188 -95q215 0 238 248h135q0 -170 -99.5 -254t-248.5 -93l-78 -94h4q12 6 59 6q80 0 128.5 -41t48.5 -122q0 -90 -69 -139.5 t-183 -49.5q-86 0 -191 47l35 82q78 -31 133 -31q119 0 119 84t-100 84q-25 0 -80 -16l-35 39l115 151q-387 39 -387 502z" />
<glyph unicode="&#xe8;" horiz-adv-x="1024" d="M109 485q0 248 116.5 379t325.5 131q172 0 281.5 -99t109.5 -300v-117h-653q2 -406 258 -405q92 0 154.5 51t80.5 151h144q-45 -301 -381 -301q-436 0 -436 510zM242 1446h217l188 -287h-135zM289 578h481q-2 154 -59.5 236.5t-165.5 82.5q-119 0 -184.5 -84.5 t-71.5 -234.5z" />
<glyph unicode="&#xe9;" horiz-adv-x="1024" d="M109 485q0 248 116.5 379t325.5 131q172 0 281.5 -99t109.5 -300v-117h-653q2 -406 258 -405q92 0 154.5 51t80.5 151h144q-45 -301 -381 -301q-436 0 -436 510zM289 578h481q-2 154 -59.5 236.5t-165.5 82.5q-119 0 -184.5 -84.5t-71.5 -234.5zM377 1159l188 287h217 l-270 -287h-135z" />
<glyph unicode="&#xea;" horiz-adv-x="1024" d="M109 485q0 248 116.5 379t325.5 131q172 0 281.5 -99t109.5 -300v-117h-653q2 -406 258 -405q92 0 154.5 51t80.5 151h144q-45 -301 -381 -301q-436 0 -436 510zM236 1159l202 287h189l202 -287h-163l-134 189l-133 -189h-163zM289 578h481q-2 154 -59.5 236.5 t-165.5 82.5q-119 0 -184.5 -84.5t-71.5 -234.5z" />
<glyph unicode="&#xeb;" horiz-adv-x="1024" d="M109 485q0 248 116.5 379t325.5 131q172 0 281.5 -99t109.5 -300v-117h-653q2 -406 258 -405q92 0 154.5 51t80.5 151h144q-45 -301 -381 -301q-436 0 -436 510zM242 1278q0 70 26.5 98.5t81.5 28.5q117 0 117 -115q0 -70 -26.5 -98.5t-82.5 -28.5q-116 0 -116 115z M289 578h481q-2 154 -59.5 236.5t-165.5 82.5q-119 0 -184.5 -84.5t-71.5 -234.5zM598 1278q0 70 26.5 98.5t82.5 28.5q117 0 116 -115q0 -70 -26.5 -98.5t-81.5 -28.5q-117 0 -117 115z" />
<glyph unicode="&#xec;" horiz-adv-x="684" d="M72 0v86h57q135 0 135 119v573q0 100 -92 101h-100v92q190 0 364 16v-782q0 -119 135 -119h41v-86h-540zM72 1446h217l188 -287h-135z" />
<glyph unicode="&#xed;" horiz-adv-x="684" d="M72 0v86h57q135 0 135 119v573q0 100 -92 101h-100v92q190 0 364 16v-782q0 -119 135 -119h41v-86h-540zM207 1159l188 287h217l-270 -287h-135z" />
<glyph unicode="&#xee;" horiz-adv-x="684" d="M45 1159l203 287h188l203 -287h-164l-133 189l-133 -189h-164zM72 0v86h57q135 0 135 119v573q0 100 -92 101h-100v92q190 0 364 16v-782q0 -119 135 -119h41v-86h-540z" />
<glyph unicode="&#xef;" horiz-adv-x="684" d="M51 1278q0 70 26.5 98.5t82.5 28.5q117 0 116 -115q0 -70 -26.5 -98.5t-81.5 -28.5q-117 0 -117 115zM72 0v86h57q135 0 135 119v573q0 100 -92 101h-100v92q190 0 364 16v-782q0 -119 135 -119h41v-86h-540zM408 1278q0 70 26.5 98.5t81.5 28.5q117 0 117 -115 q0 -70 -26.5 -98.5t-82.5 -28.5q-116 0 -116 115z" />
<glyph unicode="&#xf0;" d="M109 485q0 256 130 383t330 127q150 0 254 -102l4 4q-57 254 -268 397l-174 -110l-70 57l162 102q-113 59 -225 70l94 74q147 -12 254 -64l162 105l69 -58l-145 -94q172 -113 258 -320.5t86 -469.5q0 -289 -117.5 -450t-343.5 -161q-201 0 -330.5 127t-129.5 383z M297 485q0 -215 65.5 -313t207 -98t207 98t65.5 313t-65.5 313.5t-207 98.5t-207 -98.5t-65.5 -313.5z" />
<glyph unicode="&#xf1;" horiz-adv-x="1251" d="M47 0v86h57q135 0 136 119v573q0 100 -93 101h-100v92q197 0 356 16v-151h7q94 160 313 159q317 0 317 -305v-487q0 -68 22.5 -92.5t72.5 -24.5h69v-86h-528v86h90q51 0 76.5 26.5t25.5 96.5v403q0 145 -47 211t-147 66q-131 0 -196.5 -93.5t-65.5 -238.5v-352 q0 -119 135 -119h41v-86h-541zM279 1171q25 219 213 220q70 0 159 -37q10 -4 39 -17.5t45.5 -18.5t32.5 -5q90 0 102 92h105q-12 -96 -67.5 -157.5t-137.5 -61.5q-51 0 -160 39q-104 39 -139 39t-62.5 -26t-35.5 -67h-94z" />
<glyph unicode="&#xf2;" d="M109 485q0 256 130 383t330.5 127t330.5 -127t130 -383t-130 -383t-330.5 -127t-330.5 127t-130 383zM297 485q0 -215 65.5 -313t207 -98t207 98t65.5 313t-65.5 313.5t-207 98.5t-207 -98.5t-65.5 -313.5zM299 1446h217l189 -287h-136z" />
<glyph unicode="&#xf3;" d="M109 485q0 256 130 383t330.5 127t330.5 -127t130 -383t-130 -383t-330.5 -127t-330.5 127t-130 383zM297 485q0 -215 65.5 -313t207 -98t207 98t65.5 313t-65.5 313.5t-207 98.5t-207 -98.5t-65.5 -313.5zM434 1159l189 287h217l-271 -287h-135z" />
<glyph unicode="&#xf4;" d="M109 485q0 256 130 383t330.5 127t330.5 -127t130 -383t-130 -383t-330.5 -127t-330.5 127t-130 383zM272 1159l203 287h189l202 -287h-164l-133 189l-133 -189h-164zM297 485q0 -215 65.5 -313t207 -98t207 98t65.5 313t-65.5 313.5t-207 98.5t-207 -98.5t-65.5 -313.5z " />
<glyph unicode="&#xf5;" d="M109 485q0 256 130 383t330.5 127t330.5 -127t130 -383t-130 -383t-330.5 -127t-330.5 127t-130 383zM221 1171q25 219 213 220q70 0 160 -37q10 -4 39 -17.5t45 -18.5t33 -5q90 0 102 92h105q-12 -96 -67.5 -157.5t-137.5 -61.5q-51 0 -160 39q-104 39 -139 39 t-62.5 -26t-36.5 -67h-94zM297 485q0 -215 65.5 -313t207 -98t207 98t65.5 313t-65.5 313.5t-207 98.5t-207 -98.5t-65.5 -313.5z" />
<glyph unicode="&#xf6;" d="M109 485q0 256 130 383t330.5 127t330.5 -127t130 -383t-130 -383t-330.5 -127t-330.5 127t-130 383zM279 1278q0 70 26.5 98.5t81.5 28.5q117 0 117 -115q0 -70 -26.5 -98.5t-82.5 -28.5q-116 0 -116 115zM297 485q0 -215 65.5 -313t207 -98t207 98t65.5 313 t-65.5 313.5t-207 98.5t-207 -98.5t-65.5 -313.5zM635 1278q0 70 26.5 98.5t81.5 28.5q117 0 117 -115q0 -70 -26.5 -98.5t-81.5 -28.5q-117 0 -117 115z" />
<glyph unicode="&#xf7;" horiz-adv-x="1228" d="M96 451v135h1037v-135h-1037zM487 102.5q0 53.5 37 90t90.5 36.5t90 -36.5t36.5 -90t-36.5 -90.5t-90 -37t-90.5 37t-37 90.5zM487 934q0 53 37 90t90.5 37t90 -37t36.5 -90t-36.5 -90t-90 -37t-90.5 37t-37 90z" />
<glyph unicode="&#xf8;" d="M109 485q0 256 130 383t330 127q168 0 289 -90l109 137l53 -47l-111 -139q121 -131 121 -371q0 -256 -130 -383t-331 -127q-172 0 -288 91l-109 -138l-53 47l110 140q-120 130 -120 370zM297 485q0 -154 33 -243l444 559q-63 96 -204.5 96t-207 -98.5t-65.5 -313.5z M365 170q63 -96 204.5 -96t207 98t65.5 313q0 154 -33 244z" />
<glyph unicode="&#xf9;" horiz-adv-x="1251" d="M61 879v92q211 0 336 16v-620q0 -150 47.5 -211.5t149.5 -61.5q109 0 179.5 87t70.5 241q0 49 4 163.5t4 166.5q0 72 -25.5 99.5t-91.5 27.5h-76v92q305 0 365 16v-751q0 -96 24.5 -123t98.5 -27h43v-86h-328q-2 23 -3 79t-1 83h-4q-92 -186 -319 -187q-309 0 -310 306 v481q0 68 -22.5 92.5t-71.5 24.5h-70zM356 1446h217l189 -287h-135z" />
<glyph unicode="&#xfa;" horiz-adv-x="1251" d="M61 879v92q211 0 336 16v-620q0 -150 47.5 -211.5t149.5 -61.5q109 0 179.5 87t70.5 241q0 49 4 163.5t4 166.5q0 72 -25.5 99.5t-91.5 27.5h-76v92q305 0 365 16v-751q0 -96 24.5 -123t98.5 -27h43v-86h-328q-2 23 -3 79t-1 83h-4q-92 -186 -319 -187q-309 0 -310 306 v481q0 68 -22.5 92.5t-71.5 24.5h-70zM492 1159l188 287h217l-270 -287h-135z" />
<glyph unicode="&#xfb;" horiz-adv-x="1251" d="M61 879v92q211 0 336 16v-620q0 -150 47.5 -211.5t149.5 -61.5q109 0 179.5 87t70.5 241q0 49 4 163.5t4 166.5q0 72 -25.5 99.5t-91.5 27.5h-76v92q305 0 365 16v-751q0 -96 24.5 -123t98.5 -27h43v-86h-328q-2 23 -3 79t-1 83h-4q-92 -186 -319 -187q-309 0 -310 306 v481q0 68 -22.5 92.5t-71.5 24.5h-70zM330 1159l202 287h189l203 -287h-164l-133 189l-133 -189h-164z" />
<glyph unicode="&#xfc;" horiz-adv-x="1251" d="M61 879v92q211 0 336 16v-620q0 -150 47.5 -211.5t149.5 -61.5q109 0 179.5 87t70.5 241q0 49 4 163.5t4 166.5q0 72 -25.5 99.5t-91.5 27.5h-76v92q305 0 365 16v-751q0 -96 24.5 -123t98.5 -27h43v-86h-328q-2 23 -3 79t-1 83h-4q-92 -186 -319 -187q-309 0 -310 306 v481q0 68 -22.5 92.5t-71.5 24.5h-70zM315 1278q0 70 27 98.5t82 28.5q117 0 117 -115q0 -70 -27 -98.5t-82 -28.5q-117 0 -117 115zM672 1278q0 70 26.5 98.5t81.5 28.5q117 0 117 -115q0 -70 -26.5 -98.5t-82.5 -28.5q-116 0 -116 115z" />
<glyph unicode="&#xfd;" d="M25 885v86h483v-86h-92q-80 0 -80 -45q0 -23 37 -117l207 -533l227 555q31 72 31 95q0 27 -22.5 36t-76.5 9h-75v86h450v-86q-78 0 -112.5 -35t-75.5 -133l-351 -856q-51 -125 -51 -162q0 -53 92 -53h76v-86h-495v86q109 0 146.5 23.5t72.5 113.5l78 201l-304 761 q-25 61 -60 97.5t-105 42.5zM434 1159l189 287h217l-271 -287h-135z" />
<glyph unicode="&#xfe;" horiz-adv-x="1251" d="M47 -354h57q135 0 136 118v1514q0 100 -93 100h-100v92q190 0 365 17v-674h4q88 182 329 182q166 0 270.5 -126t104.5 -351q0 -158 -38 -270.5t-101 -168.5t-130 -80t-144 -24q-174 0 -291 138h-4v-349q0 -119 135 -118h49v-86h-549v86zM412 485.5q0 -403.5 264 -403.5 t264 403.5t-264 403.5t-264 -403.5z" />
<glyph unicode="&#xff;" d="M25 885v86h483v-86h-92q-80 0 -80 -45q0 -23 37 -117l207 -533l227 555q31 72 31 95q0 27 -22.5 36t-76.5 9h-75v86h450v-86q-78 0 -112.5 -35t-75.5 -133l-351 -856q-51 -125 -51 -162q0 -53 92 -53h76v-86h-495v86q109 0 146.5 23.5t72.5 113.5l78 201l-304 761 q-25 61 -60 97.5t-105 42.5zM279 1278q0 70 26.5 98.5t81.5 28.5q117 0 117 -115q0 -70 -26.5 -98.5t-82.5 -28.5q-116 0 -116 115zM635 1278q0 70 26.5 98.5t81.5 28.5q117 0 117 -115q0 -70 -26.5 -98.5t-81.5 -28.5q-117 0 -117 115z" />
<glyph unicode="&#x152;" horiz-adv-x="2048" d="M135 649q0 348 142.5 525.5t404.5 177.5q70 0 225.5 -8.5t206.5 -8.5h752v-331h-135v81q0 96 -39 120t-160 24h-522v-4q186 -117 223 -492h160q82 0 108.5 32t26.5 153h112v-490h-112q0 133 -25.5 166t-136.5 33h-133q-27 -348 -221 -521h600q94 0 119.5 42t25.5 196h135 v-344h-739q-104 0 -260 -8q-152 -8 -213 -8q-270 0 -407.5 171.5t-137.5 493.5zM332 666q0 -279 98 -427.5t258 -148.5t258 148.5t98 427.5q0 309 -90 444t-266 135q-160 0 -258 -148t-98 -431z" />
<glyph unicode="&#x153;" horiz-adv-x="1705" d="M109 485q0 248 116.5 379t325.5 131q238 0 330 -182q111 182 325 182q172 0 281.5 -99t109.5 -300v-117h-632q2 -406 258 -405q78 0 137 52t78 150h143q-45 -301 -381 -301q-199 0 -328 160q-119 -160 -327 -160q-436 0 -436 510zM297 483q0 -410 252 -409.5t252 409.5 q0 414 -252 414t-252 -414zM965 578h460q-2 152 -58 235.5t-157 83.5q-111 0 -175 -84.5t-70 -234.5z" />
<glyph unicode="&#x178;" horiz-adv-x="1366" d="M25 1243v92h544v-92h-82q-98 0 -98 -37q0 -31 27 -78l293 -542l297 530q29 53 28 80q0 47 -73 47h-111v92h491v-92h-59q-31 0 -51.5 -15.5t-48.5 -64.5l-410 -706v-217q0 -94 29.5 -121t103.5 -27h103v-92h-668v92h119q74 0 103.5 26.5t29.5 121.5v217l-395 712 q-25 43 -47.5 58.5t-59.5 15.5h-65zM393 1538q0 70 26.5 98.5t82.5 28.5q117 0 116 -115q0 -70 -26.5 -98.5t-81.5 -28.5q-117 0 -117 115zM750 1538q0 70 26.5 98.5t81.5 28.5q117 0 117 -115q0 -70 -26.5 -98.5t-82.5 -28.5q-116 0 -116 115z" />
<glyph unicode="&#x2c6;" horiz-adv-x="569" d="M-12 1184l202 286h189l203 -286h-164l-133 188l-133 -188h-164z" />
<glyph unicode="&#x2dc;" horiz-adv-x="569" d="M-63 1196q25 219 213 219q70 0 159 -37q10 -4 39 -17t45.5 -18.5t32.5 -5.5q90 0 102 93h105q-12 -96 -67.5 -158t-137.5 -62q-51 0 -160 39q-104 39 -139 39t-62.5 -25.5t-35.5 -66.5h-94z" />
<glyph unicode="&#x2000;" horiz-adv-x="894" />
<glyph unicode="&#x2001;" horiz-adv-x="1792" />
<glyph unicode="&#x2002;" horiz-adv-x="894" />
<glyph unicode="&#x2003;" horiz-adv-x="1792" />
<glyph unicode="&#x2004;" horiz-adv-x="595" />
<glyph unicode="&#x2005;" horiz-adv-x="446" />
<glyph unicode="&#x2006;" horiz-adv-x="296" />
<glyph unicode="&#x2007;" horiz-adv-x="296" />
<glyph unicode="&#x2008;" horiz-adv-x="223" />
<glyph unicode="&#x2009;" horiz-adv-x="358" />
<glyph unicode="&#x200a;" horiz-adv-x="98" />
<glyph unicode="&#x2010;" horiz-adv-x="796" d="M137 438v107h522v-107h-522z" />
<glyph unicode="&#x2011;" horiz-adv-x="796" d="M137 438v107h522v-107h-522z" />
<glyph unicode="&#x2012;" horiz-adv-x="796" d="M137 438v107h522v-107h-522z" />
<glyph unicode="&#x2013;" horiz-adv-x="1024" d="M0 438v107h1024v-107h-1024z" />
<glyph unicode="&#x2014;" horiz-adv-x="2048" d="M0 438v107h2048v-107h-2048z" />
<glyph unicode="&#x2018;" horiz-adv-x="569" d="M135 1016q0 16 35 88l172 366h92l-76 -407q-10 -59 -32.5 -82t-75.5 -23q-66 0 -90.5 13.5t-24.5 44.5z" />
<glyph unicode="&#x2019;" horiz-adv-x="569" d="M135 958l76 408q10 59 32.5 81.5t75.5 22.5q66 0 90.5 -13t24.5 -44q0 -16 -35 -88l-172 -367h-92z" />
<glyph unicode="&#x201a;" horiz-adv-x="569" d="M135 -283l76 408q10 59 32.5 81.5t75.5 22.5q66 0 90.5 -13t24.5 -44q0 -16 -35 -88l-172 -367h-92z" />
<glyph unicode="&#x201c;" horiz-adv-x="796" d="M80 1016q0 16 35 88l172 366h92l-76 -407q-10 -59 -32.5 -82t-75.5 -23q-66 0 -90.5 13.5t-24.5 44.5zM418 1016q0 16 35 88l172 366h92l-76 -407q-10 -59 -32.5 -82t-76.5 -23q-66 0 -90 13.5t-24 44.5z" />
<glyph unicode="&#x201d;" horiz-adv-x="796" d="M80 958l76 408q10 59 32.5 81.5t75.5 22.5q66 0 90.5 -13t24.5 -44q0 -16 -35 -88l-172 -367h-92zM418 958l76 408q10 59 32.5 81.5t75.5 22.5q66 0 90.5 -13t24.5 -44q0 -16 -35 -88l-172 -367h-92z" />
<glyph unicode="&#x201e;" horiz-adv-x="796" d="M80 -283l76 408q10 59 32.5 81.5t75.5 22.5q66 0 90.5 -13t24.5 -44q0 -16 -35 -88l-172 -367h-92zM418 -283l76 408q10 59 32.5 81.5t75.5 22.5q66 0 90.5 -13t24.5 -44q0 -16 -35 -88l-172 -367h-92z" />
<glyph unicode="&#x2022;" horiz-adv-x="1024" d="M178 667.5q0 139.5 97.5 236.5t236.5 97t236.5 -97t97.5 -236.5t-97.5 -236.5t-236.5 -97t-236.5 97t-97.5 236.5z" />
<glyph unicode="&#x2026;" horiz-adv-x="2048" d="M225 102q0 127 117 127t117 -127t-117 -127t-117 127zM907 102q0 127 117 127t117 -127t-117 -127t-117 127zM1589 102q0 127 117 127t117 -127t-117 -127t-117 127z" />
<glyph unicode="&#x202f;" horiz-adv-x="358" />
<glyph unicode="&#x2039;" horiz-adv-x="569" d="M76 492l299 491h119l-246 -491l219 -492h-107z" />
<glyph unicode="&#x203a;" horiz-adv-x="569" d="M76 0l246 492l-220 491h107l285 -491l-299 -492h-119z" />
<glyph unicode="&#x205f;" horiz-adv-x="446" />
<glyph unicode="&#x20ac;" d="M29 506l32 106h121q0 72 6 136h-159l30 106h142q41 252 168 383t336 131q197 0 368 -76v-311h-127q0 133 -51 211t-184 78q-274 0 -322 -416h545l-33 -106h-520q-2 -35 -2 -109v-27h483l-33 -106h-444q37 -432 322 -432q197 0 235 209h152q-47 -315 -404 -316 q-201 0 -341 128t-163 411h-157z" />
<glyph unicode="&#x2122;" horiz-adv-x="2027" d="M63 1155v180h709v-180h-37q-4 131 -114 131h-132v-672q0 -43 25 -56t78 -13v-37h-348v37q53 0 77.5 13t24.5 56v672h-131q-111 0 -115 -131h-37zM862 1298v37h248l315 -633l322 633h217v-37q-66 0 -90.5 -22.5t-24.5 -73.5v-588q0 -45 22.5 -57t80.5 -12v-37h-348v37 q55 0 78.5 13t23.5 56v512h-4l-313 -618h-23l-305 618h-4v-512q0 -43 25.5 -56t82.5 -13v-37h-276v37q53 0 79.5 13t26.5 56v600q-35 78 -133 84z" />
<glyph unicode="&#xe000;" horiz-adv-x="970" d="M0 970h970v-970h-970v970z" />
<glyph unicode="&#xfb01;" horiz-adv-x="1251" d="M47 0v86h78q115 0 115 92v701h-193v92h193v112q0 188 114.5 287.5t337.5 99.5q182 0 259 -37.5t77 -125.5q0 -66 -22.5 -94.5t-77.5 -28.5q-72 0 -94.5 20.5t-22.5 81.5q0 49 -26.5 73.5t-116.5 24.5q-102 0 -179 -77.5t-77 -212.5v-123h336q176 0 280 16v-782 q0 -119 135 -119h41v-86h-524v86h41q135 0 135 119v573q0 100 -92 101h-352v-639q0 -94 26.5 -124t102.5 -30h43v-86h-537z" />
<glyph unicode="&#xfb02;" horiz-adv-x="1251" d="M47 0v86h78q115 0 115 92v701h-193v92h193v112q0 188 114.5 287.5t337.5 99.5q131 0 336 -30v-1235q0 -119 135 -119h41v-86h-524v86h41q135 0 135 119v1071q0 55 -36 81.5t-146 26.5q-109 0 -185.5 -76.5t-76.5 -213.5v-123h229v-92h-229v-639q0 -94 26.5 -124 t102.5 -30h43v-86h-537z" />
<glyph unicode="&#xfb03;" horiz-adv-x="2277" d="M1665 0v86h57q135 0 135 119v573q0 100 -92 101h-100v92q190 0 364 16v-782q0 -119 135 -119h41v-86h-540zM1818 1335.5q0 63.5 32 99t89 35.5t89 -35.5t32 -99t-32 -99.5t-89 -36t-89 36t-32 99.5zM844 0v86h78q115 0 115 92v701h-193v92h193v100q0 215 101 307t296 92 q98 0 229 -30v-271h-118q-4 111 -32 163t-100 52q-205 0 -204 -299v-114h258v-92h-258v-639q0 -94 26.5 -124t102.5 -30h100v-86h-594zM47 0v86h78q115 0 115 92v701h-193v92h193v100q0 215 101 307t296 92q98 0 229 -30v-271h-118q-4 111 -32 163t-100 52q-205 0 -204 -299 v-114h258v-92h-258v-639q0 -94 26.5 -124t102.5 -30h100v-86h-594z" />
<glyph unicode="&#xfb04;" horiz-adv-x="2277" d="M1665 0v86h57q135 0 135 119v1073q0 100 -92 100h-100v92q190 0 364 17v-1282q0 -119 135 -119h41v-86h-540zM844 0v86h78q115 0 115 92v701h-193v92h193v100q0 215 101 307t296 92q98 0 229 -30v-271h-118q-4 111 -32 163t-100 52q-205 0 -204 -299v-114h258v-92h-258 v-639q0 -94 26.5 -124t102.5 -30h100v-86h-594zM47 0v86h78q115 0 115 92v701h-193v92h193v100q0 215 101 307t296 92q98 0 229 -30v-271h-118q-4 111 -32 163t-100 52q-205 0 -204 -299v-114h258v-92h-258v-639q0 -94 26.5 -124t102.5 -30h100v-86h-594z" />
</font>
</defs>
</svg>
